<?xml version="1.0" encoding="UTF-8" standalone="no"?>
<!-- Created with Inkscape (http://www.inkscape.org/) -->

<svg
   width="1118.5469"
   height="547.33594"
   viewBox="0 0 295.94885 144.81597"
   version="1.1"
   id="svg1"
   xml:space="preserve"
   xmlns="http://www.w3.org/2000/svg"
   xmlns:svg="http://www.w3.org/2000/svg"><defs
     id="defs1" /><g
     id="layer1"
     transform="translate(-50.46307,-126.02952)"
     style="fill:#000000"><path
       id="rect17"
       style="fill:#000000;stroke-width:0.191791"
       d="m 198.4375,126.02952 -72.40798,72.40798 72.40798,72.40798 25.35556,-25.35555 13.31495,13.31494 24.46827,-24.46827 -13.31495,-13.31495 22.58415,-22.58415 z m 63.13878,108.30708 24.46828,24.46827 h 60.36737 V 224.2013 h -25.7638 l 1.29553,-1.29553 24.46827,-24.46827 -24.46827,-24.46827 -35.8991,-35.8991 -24.46828,24.46827 35.8991,35.8991 z m -150.74584,-96.26647 -35.899096,35.8991 -24.468274,24.46827 24.468274,24.46827 35.899096,35.8991 24.46828,-24.46827 -35.899102,-35.8991 35.899102,-35.8991 z m 87.60706,35.89961 24.46827,24.46776 -24.46827,24.46827 -24.46776,-24.46827 z" /></g></svg>
