<?xml version="1.0" encoding="UTF-8" standalone="no"?>
<!-- Created with Inkscape (http://www.inkscape.org/) -->

<svg
   width="1200.688"
   height="1060.6425"
   viewBox="0 0 317.68201 280.62832"
   version="1.1"
   id="svg1"
   inkscape:version="1.3.2 (091e20e, 2023-11-25)"
   sodipodi:docname="quote-hell.svg"
   xml:space="preserve"
   inkscape:export-filename="../../../Desktop/drawing.png"
   inkscape:export-xdpi="96"
   inkscape:export-ydpi="96"
   xmlns:inkscape="http://www.inkscape.org/namespaces/inkscape"
   xmlns:sodipodi="http://sodipodi.sourceforge.net/DTD/sodipodi-0.dtd"
   xmlns="http://www.w3.org/2000/svg"
   xmlns:svg="http://www.w3.org/2000/svg"><sodipodi:namedview
     id="namedview1"
     pagecolor="#ffffff"
     bordercolor="#000000"
     borderopacity="0.25"
     inkscape:showpageshadow="2"
     inkscape:pageopacity="0.0"
     inkscape:pagecheckerboard="0"
     inkscape:deskcolor="#d1d1d1"
     inkscape:document-units="mm"
     inkscape:zoom="0.60072017"
     inkscape:cx="650.88541"
     inkscape:cy="496.07124"
     inkscape:window-width="1920"
     inkscape:window-height="1027"
     inkscape:window-x="0"
     inkscape:window-y="25"
     inkscape:window-maximized="0"
     inkscape:current-layer="layer1"
     inkscape:export-bgcolor="#ffffff00"
     showguides="false" /><defs
     id="defs1"><rect
       id="SVGID_1_"
       width="32"
       height="32"
       x="0"
       y="0" /></defs><g
     inkscape:label="Layer 1"
     inkscape:groupmode="layer"
     id="layer1"
     transform="translate(-129.75593,-161.79808)"><rect
       style="fill:#000000;fill-opacity:1;stroke:#ffffff;stroke-width:0;stroke-dasharray:none;stroke-opacity:0"
       id="rect7"
       width="139.28122"
       height="280.62833"
       x="218.19838"
       y="161.79808"
       inkscape:label="rect7" /><rect
       style="fill:#ffffff;fill-opacity:1;stroke:#ffffff;stroke-width:0;stroke-dasharray:none;stroke-opacity:0"
       id="rect8"
       width="126.19117"
       height="267.50079"
       x="224.74341"
       y="168.84781"
       inkscape:label="rect8" /><rect
       style="fill:#ececec;stroke:#ffffff;stroke-width:0.0636038;stroke-opacity:0"
       id="rect1"
       width="111.93182"
       height="3.6287735"
       x="232.13771"
       y="182.67844" /><rect
       style="fill:#ececec;stroke:#ffffff;stroke-width:0.0636038;stroke-opacity:0"
       id="rect1-5"
       width="111.93182"
       height="3.6287735"
       x="232.13771"
       y="187.95059" /><rect
       style="fill:#ececec;stroke:#ffffff;stroke-width:0.0565121;stroke-opacity:0"
       id="rect1-5-4"
       width="88.190514"
       height="3.6358652"
       x="232.13417"
       y="193.21921" /><rect
       style="fill:#ececec;stroke:#ffffff;stroke-width:0.0636038;stroke-opacity:0"
       id="rect1-3"
       width="111.93182"
       height="3.6287735"
       x="232.15413"
       y="224.85573" /><rect
       style="fill:#ececec;stroke:#ffffff;stroke-width:0.0636038;stroke-opacity:0"
       id="rect1-5-6"
       width="111.93182"
       height="3.6287735"
       x="232.15413"
       y="230.12788" /><rect
       style="fill:#ececec;stroke:#ffffff;stroke-width:0.039695;stroke-opacity:0"
       id="rect1-5-4-5"
       width="43.311657"
       height="3.6526825"
       x="300.78625"
       y="219.57162" /><rect
       style="fill:#b5ead6;fill-opacity:1;stroke:#ffffff;stroke-width:0.0284195;stroke-opacity:0"
       id="rect1-5-4-8"
       width="22.1325"
       height="3.6639578"
       x="321.95462"
       y="193.20517" /><rect
       style="fill:#b5ead6;fill-opacity:1;stroke:#ffffff;stroke-width:0.0635945;stroke-opacity:0"
       id="rect1-5-4-8-2"
       width="111.899"
       height="3.6287827"
       x="232.17053"
       y="198.49492" /><rect
       style="fill:#b5ead6;fill-opacity:1;stroke:#ffffff;stroke-width:0.0635945;stroke-opacity:0"
       id="rect1-5-4-8-2-7"
       width="111.899"
       height="3.6287827"
       x="232.17053"
       y="203.76707" /><rect
       style="fill:#ffdbcc;fill-opacity:1;stroke:#ffffff;stroke-width:0.0635945;stroke-opacity:0"
       id="rect1-5-4-8-2-6"
       width="111.899"
       height="3.6287827"
       x="232.17053"
       y="209.03923" /><rect
       style="fill:#ffdbcc;fill-opacity:1;stroke:#ffffff;stroke-width:0.0635945;stroke-opacity:0"
       id="rect1-5-4-8-2-7-2"
       width="111.899"
       height="3.6287827"
       x="232.17053"
       y="214.3114" /><rect
       style="fill:#ffdbcc;fill-opacity:1;stroke:#ffffff;stroke-width:0.0493357;stroke-opacity:0"
       id="rect1-5-4-8-2-7-2-9"
       width="67.0821"
       height="3.6430416"
       x="232.16341"
       y="219.57643" /><path
       id="text1"
       style="font-weight:500;font-size:3.52778px;line-height:1.1;font-family:Satoshi;-inkscape-font-specification:'Satoshi Medium';fill:#000000;fill-opacity:1;stroke:#ffffff;stroke-width:0.183356;stroke-opacity:0"
       d="m 233.07613,176.40869 -0.93121,2.57917 h 0.46922 l 0.20774,-0.59634 h 0.96325 l 0.20826,0.59634 h 0.47594 l -0.93121,-2.57917 z m 0.22944,0.57154 c 0.007,0.0529 0.0315,0.13038 0.0527,0.19741 l 0.29611,0.83302 h -0.69815 l 0.29249,-0.83302 c 0.0247,-0.0706 0.0463,-0.14802 0.0568,-0.19741 z m 3.85196,0.21188 c -0.47272,0 -0.78289,0.24678 -0.78289,0.62425 h 0.3669 c 0,-0.18345 0.14081,-0.28939 0.39481,-0.28939 0.21872,0 0.36018,0.0954 0.36018,0.33176 v 0.0388 l -0.52245,0.0388 c -0.41275,0.0317 -0.64544,0.23295 -0.64544,0.55397 0,0.32809 0.22593,0.54312 0.59635,0.54312 0.27164,0 0.50779,-0.12342 0.58188,-0.30334 l 0.032,0.25787 h 0.37723 v -1.05834 c 0,-0.4833 -0.28941,-0.73742 -0.75861,-0.73742 z m -2.75487,0.0527 0.69143,1.74304 h 0.42323 l 0.72657,-1.74304 h -0.44441 l -0.3173,0.80098 c -0.0741,0.1905 -0.13757,0.37382 -0.16226,0.48318 -0.0212,-0.0952 -0.0815,-0.27504 -0.15555,-0.48318 l -0.30334,-0.80098 z m 3.09697,0.94568 v 0.0915 c 0,0.26811 -0.16898,0.42684 -0.43356,0.42684 -0.19403,0 -0.29973,-0.0774 -0.29973,-0.23616 0,-0.14111 0.1019,-0.22955 0.37001,-0.25425 z" /><rect
       style="fill:#b5ead6;fill-opacity:1;stroke:#ffffff;stroke-width:0.0284384;stroke-opacity:0"
       id="rect1-5-4-8-8"
       width="22.147705"
       height="3.6663077"
       x="235.98335"
       y="260.17303" /><rect
       style="fill:#b5ead6;fill-opacity:1;stroke:#ffffff;stroke-width:0.062587;stroke-opacity:0"
       id="rect1-5-4-8-2-2"
       width="108.35143"
       height="3.6297903"
       x="236.00043"
       y="254.9192" /><rect
       style="fill:#b5ead6;fill-opacity:1;stroke:#ffffff;stroke-width:0.0625891;stroke-opacity:0"
       id="rect1-5-4-8-2-7-9"
       width="108.35155"
       height="3.6300273"
       x="236.00043"
       y="249.64693" /><rect
       style="fill:#ffdbcc;fill-opacity:1;stroke:#ffffff;stroke-width:0.0625064;stroke-opacity:0"
       id="rect1-5-4-8-2-6-8"
       width="108.07021"
       height="3.6298709"
       x="235.99988"
       y="284.58585" /><rect
       style="fill:#ffdbcc;fill-opacity:1;stroke:#ffffff;stroke-width:0.0625064;stroke-opacity:0"
       id="rect1-5-4-8-2-7-2-2"
       width="108.07021"
       height="3.6298709"
       x="235.99988"
       y="289.85785" /><rect
       style="fill:#ffdbcc;fill-opacity:1;stroke:#ffffff;stroke-width:0.0493357;stroke-opacity:0"
       id="rect1-5-4-8-2-7-2-9-0"
       width="67.0821"
       height="3.6430416"
       x="235.9933"
       y="295.12341" /><path
       id="text1-7"
       style="font-weight:500;font-size:3.52778px;line-height:1.1;font-family:Satoshi;-inkscape-font-specification:'Satoshi Medium';fill:#000000;fill-opacity:1;stroke:#ffffff;stroke-width:0.183356;stroke-opacity:0"
       d="m 237.19267,243.33225 v 2.62465 h 0.42685 v -2.62465 z m 2.84324,0 v 2.62465 h 0.39843 l 0.0284,-0.27182 c 0.1023,0.20108 0.32444,0.31729 0.58549,0.31729 0.50095,0 0.82941,-0.37018 0.82941,-0.9064 0,-0.55033 -0.30357,-0.93845 -0.80099,-0.93845 -0.26458,0 -0.4974,0.11655 -0.61029,0.31058 v -1.13585 z m -6.2513,0.003 c -0.75494,0 -1.25935,0.53297 -1.25935,1.33377 0,0.80786 0.48675,1.32964 1.23817,1.32964 0.6103,0 1.08306,-0.35951 1.18184,-0.90279 h -0.46923 c -0.0847,0.28575 -0.35251,0.46922 -0.70176,0.46922 -0.47272,0 -0.77618,-0.35288 -0.77618,-0.89969 0,-0.55033 0.29993,-0.89607 0.77618,-0.89607 0.34219,0 0.59962,0.1766 0.68781,0.47646 h 0.47594 c -0.0882,-0.55386 -0.54311,-0.91054 -1.15342,-0.91054 z m 2.21899,0.82579 c -0.47272,0 -0.7829,0.24678 -0.7829,0.62425 h 0.3669 c 0,-0.18344 0.14081,-0.28938 0.39481,-0.28938 0.21872,0 0.36019,0.0954 0.36019,0.33176 v 0.0388 l -0.52245,0.0387 c -0.41275,0.0318 -0.64544,0.23295 -0.64544,0.55397 0,0.32809 0.22593,0.54312 0.59635,0.54312 0.27163,0 0.50779,-0.12342 0.58187,-0.30334 l 0.0315,0.25787 h 0.37776 v -1.05834 c 0,-0.4833 -0.28942,-0.73742 -0.75861,-0.73742 z m 2.8329,0 c -0.51153,0 -0.86765,0.37717 -0.86765,0.92398 0,0.53975 0.36302,0.91725 0.8816,0.91725 0.45509,0 0.7729,-0.2293 0.84698,-0.6103 h -0.39894 c -0.0494,0.16581 -0.20444,0.25787 -0.4408,0.25787 -0.28575,0 -0.44833,-0.15559 -0.48008,-0.4625 l 1.31259,-0.003 v -0.13075 c 0,-0.54327 -0.33159,-0.89245 -0.8537,-0.89245 z m 0.004,0.35244 c 0.25753,0 0.42323,0.15905 0.42323,0.39894 h -0.87488 c 0.0423,-0.26106 0.19765,-0.39894 0.45165,-0.39894 z m 2.12028,0.032 c 0.30339,0 0.48318,0.22234 0.48318,0.53279 0,0.31044 -0.17979,0.52917 -0.48318,0.52917 -0.29633,0 -0.49041,-0.2152 -0.49041,-0.52917 0,-0.31397 0.19408,-0.53279 0.49041,-0.53279 z m -4.6147,0.61392 v 0.0915 c 0,0.26811 -0.16898,0.42685 -0.43357,0.42685 -0.19403,0 -0.30024,-0.0774 -0.30024,-0.23617 0,-0.14111 0.10241,-0.22955 0.37052,-0.25424 z" /><rect
       style="fill:#666666;fill-opacity:1;stroke:#ffffff;stroke-width:0.139308;stroke-opacity:0"
       id="rect3"
       width="1.3136827"
       height="14.289006"
       x="232.10501"
       y="249.59833" /><rect
       style="fill:#cce2cb;fill-opacity:1;stroke:#ffffff;stroke-width:0.0636038;stroke-opacity:0"
       id="rect1-6"
       width="111.93182"
       height="3.6287735"
       x="232.13771"
       y="267.07431" /><rect
       style="fill:#cce2cb;fill-opacity:1;stroke:#ffffff;stroke-width:0.0636038;stroke-opacity:0"
       id="rect1-5-46"
       width="111.93182"
       height="3.6287735"
       x="232.13771"
       y="272.34653" /><rect
       style="fill:#cce2cb;fill-opacity:1;stroke:#ffffff;stroke-width:0.0565121;stroke-opacity:0"
       id="rect1-5-4-4"
       width="88.190514"
       height="3.6358652"
       x="232.13417"
       y="277.61511" /><rect
       style="fill:#cce2cb;fill-opacity:1;stroke:#ffffff;stroke-width:0.0625103;stroke-opacity:0"
       id="rect1-6-89"
       width="108.08372"
       height="3.6298668"
       x="235.98636"
       y="363.46979" /><rect
       style="fill:#cce2cb;fill-opacity:1;stroke:#ffffff;stroke-width:0.0625103;stroke-opacity:0"
       id="rect1-5-46-9"
       width="108.08372"
       height="3.6298668"
       x="235.98636"
       y="368.74216" /><rect
       style="fill:#cce2cb;fill-opacity:1;stroke:#ffffff;stroke-width:0.0565121;stroke-opacity:0"
       id="rect1-5-4-4-9"
       width="88.190514"
       height="3.6358652"
       x="235.98335"
       y="374.01144" /><path
       style="fill:#FF4F00;fill-opacity:0;stroke:#FF4F00;stroke-width:0.885;stroke-dasharray:none;stroke-opacity:1"
       d="m 250.00817,219.07041 4.0501,-3.19208 -4.79038,-1.90907"
       id="path6-2-5-7" /><rect
       style="fill:#666666;fill-opacity:1;stroke:#ffffff;stroke-width:0.139308;stroke-opacity:0"
       id="rect3-2"
       width="1.3136827"
       height="14.289006"
       x="232.105"
       y="284.53781" /><rect
       style="fill:#dfccf1;fill-opacity:1;stroke:#ffffff;stroke-width:0.0636038;stroke-opacity:0"
       id="rect1-6-5"
       width="111.93182"
       height="3.6287735"
       x="232.13771"
       y="302.01367" /><rect
       style="fill:#dfccf1;fill-opacity:1;stroke:#ffffff;stroke-width:0.0636038;stroke-opacity:0"
       id="rect1-5-46-1"
       width="111.93182"
       height="3.6287735"
       x="232.13771"
       y="307.28586" /><rect
       style="fill:#dfccf1;fill-opacity:1;stroke:#ffffff;stroke-width:0.0636038;stroke-opacity:0"
       id="rect1-5-4-4-3"
       width="111.93182"
       height="3.6287735"
       x="232.13771"
       y="312.55801" /><rect
       style="fill:#dfccf1;fill-opacity:1;stroke:#ffffff;stroke-width:0.0625085;stroke-opacity:0"
       id="rect1-6-5-4"
       width="108.07733"
       height="3.6298687"
       x="235.99275"
       y="398.39417" /><rect
       style="fill:#dfccf1;fill-opacity:1;stroke:#ffffff;stroke-width:0.0625085;stroke-opacity:0"
       id="rect1-5-46-1-0"
       width="108.07733"
       height="3.6298687"
       x="235.99275"
       y="403.66638" /><rect
       style="fill:#dfccf1;fill-opacity:1;stroke:#ffffff;stroke-width:0.0625085;stroke-opacity:0"
       id="rect1-5-4-4-3-6"
       width="108.07733"
       height="3.6298687"
       x="235.99275"
       y="408.93851" /><path
       id="text1-7-6"
       style="font-weight:500;font-size:3.52778px;line-height:1.1;font-family:Satoshi;-inkscape-font-specification:'Satoshi Medium';fill:#000000;fill-opacity:1;stroke:#ffffff;stroke-width:0.183356;stroke-opacity:0"
       d="m 233.35777,357.18605 -0.93121,2.57865 h 0.46922 l 0.20825,-0.59634 h 0.96274 l 0.20825,0.59634 h 0.47646 l -0.93173,-2.57865 z m 0.22944,0.57102 c 0.007,0.0529 0.0315,0.1309 0.0527,0.19792 l 0.29662,0.83251 h -0.69866 l 0.293,-0.83251 c 0.0247,-0.0706 0.0457,-0.14853 0.0563,-0.19792 z m 3.85248,0.21188 c -0.47272,0 -0.78342,0.24678 -0.78342,0.62425 h 0.36691 c 0,-0.18345 0.14132,-0.28887 0.39532,-0.28887 0.21872,0 0.35967,0.0949 0.35967,0.33124 v 0.0388 l -0.52193,0.0388 c -0.41275,0.0318 -0.64596,0.23294 -0.64596,0.55397 0,0.32808 0.22593,0.54363 0.59635,0.54363 0.27164,0 0.50779,-0.12394 0.58187,-0.30385 l 0.032,0.25786 h 0.37724 v -1.05833 c 0,-0.48331 -0.2889,-0.73742 -0.75809,-0.73742 z m -2.75539,0.0527 0.69143,1.74304 h 0.42323 l 0.72657,-1.74304 h -0.44442 l -0.31729,0.80098 c -0.0741,0.1905 -0.13757,0.37381 -0.16226,0.48318 -0.0212,-0.0952 -0.081,-0.27504 -0.15503,-0.48318 l -0.30386,-0.80098 z m 3.09749,0.94567 v 0.0915 c 0,0.26811 -0.1695,0.42737 -0.43409,0.42737 -0.19402,0 -0.29972,-0.0779 -0.29972,-0.23668 0,-0.14111 0.10241,-0.22904 0.37052,-0.25373 z" /><rect
       style="fill:#666666;fill-opacity:1;stroke:#ffffff;stroke-width:0.139308;stroke-opacity:0"
       id="rect3-7"
       width="1.3136827"
       height="14.289006"
       x="232.105"
       y="363.40594" /><rect
       style="fill:#9ab7d3;fill-opacity:1;stroke:#ffffff;stroke-width:0.0636038;stroke-opacity:0"
       id="rect1-6-8"
       width="111.93182"
       height="3.6287735"
       x="232.13771"
       y="380.88248" /><rect
       style="fill:#9ab7d3;fill-opacity:1;stroke:#ffffff;stroke-width:0.0636038;stroke-opacity:0"
       id="rect1-5-46-4"
       width="111.93182"
       height="3.6287735"
       x="232.13771"
       y="386.15482" /><rect
       style="fill:#9ab7d3;fill-opacity:1;stroke:#ffffff;stroke-width:0.0247784;stroke-opacity:0"
       id="rect1-5-4-4-0"
       width="16.807775"
       height="3.667599"
       x="232.11829"
       y="391.40759" /><rect
       style="fill:#666666;fill-opacity:1;stroke:#ffffff;stroke-width:0.139308;stroke-opacity:0"
       id="rect3-2-0"
       width="1.3136827"
       height="14.289006"
       x="232.105"
       y="398.34622" /><rect
       style="fill:#f6eac2;fill-opacity:1;stroke:#ffffff;stroke-width:0.0636038;stroke-opacity:0"
       id="rect1-6-5-6"
       width="111.93182"
       height="3.6287735"
       x="232.13771"
       y="415.82224" /><rect
       style="fill:#f6eac2;fill-opacity:1;stroke:#ffffff;stroke-width:0.0636038;stroke-opacity:0"
       id="rect1-5-46-1-2"
       width="111.93182"
       height="3.6287735"
       x="232.13771"
       y="421.09442" /><rect
       style="fill:#f6eac2;fill-opacity:1;stroke:#ffffff;stroke-width:0.045084;stroke-opacity:0"
       id="rect1-5-4-4-3-4"
       width="55.952633"
       height="3.6472933"
       x="232.12845"
       y="426.35733" /><path
       id="text5"
       style="font-style:normal;font-variant:normal;font-weight:bold;font-stretch:normal;font-size:3.52778px;line-height:1.1;font-family:Satoshi;-inkscape-font-specification:'Satoshi Bold';fill:#000000;fill-opacity:1;stroke:#ffffff;stroke-width:0.183356;stroke-opacity:0"
       d="m 323.04376,193.74769 v 0.40566 h 0.56431 v 2.17299 h 0.43408 v -2.57865 z" /><path
       id="text5-4"
       style="font-style:normal;font-variant:normal;font-weight:bold;font-stretch:normal;font-size:3.52778px;line-height:1.1;font-family:Satoshi;-inkscape-font-specification:'Satoshi Bold';fill:#000000;fill-opacity:1;stroke:#ffffff;stroke-width:0.183356;stroke-opacity:0"
       d="m 237.01387,250.17266 v 0.40566 h 0.56431 v 2.173 h 0.43408 v -2.57866 z" /><path
       id="text5-49"
       style="font-style:normal;font-variant:normal;font-weight:bold;font-stretch:normal;font-size:3.52778px;line-height:1.1;font-family:Satoshi;-inkscape-font-specification:'Satoshi Bold';fill:#000000;fill-opacity:1;stroke:#ffffff;stroke-width:0.183356;stroke-opacity:0"
       d="m 233.93913,209.5183 c -0.54681,0 -0.90701,0.36676 -0.91054,0.93121 h 0.44803 c 0.004,-0.33161 0.18028,-0.52917 0.46251,-0.52917 0.27163,0 0.43046,0.16608 0.43046,0.45889 0,0.24694 -0.11687,0.41628 -0.46612,0.71261 l -0.84284,0.71262 v 0.33848 l 1.78852,-0.004 v -0.41961 h -1.07229 l 0.46561,-0.39842 c 0.39158,-0.33514 0.58911,-0.60703 0.58911,-0.96687 0,-0.52211 -0.34212,-0.83612 -0.89245,-0.83612 z" /><path
       id="text5-49-0"
       style="font-style:normal;font-variant:normal;font-weight:bold;font-stretch:normal;font-size:3.52778px;line-height:1.1;font-family:Satoshi;-inkscape-font-specification:'Satoshi Bold';fill:#000000;fill-opacity:1;stroke:#ffffff;stroke-width:0.183356;stroke-opacity:0"
       d="m 237.84793,285.08836 c -0.5468,0 -0.90649,0.36676 -0.91002,0.93121 h 0.44803 c 0.004,-0.33161 0.17977,-0.52917 0.46199,-0.52917 0.27164,0 0.43047,0.16608 0.43047,0.45889 0,0.24694 -0.11636,0.41628 -0.46561,0.71262 l -0.84336,0.71262 v 0.33848 l 1.78852,-0.004 v -0.41961 h -1.07228 l 0.4656,-0.39843 c 0.39159,-0.33514 0.58911,-0.60703 0.58911,-0.96687 0,-0.52211 -0.34212,-0.83612 -0.89245,-0.83612 z" /><path
       id="text5-49-1"
       style="font-style:normal;font-variant:normal;font-weight:bold;font-stretch:normal;font-size:3.52778px;line-height:1.1;font-family:Satoshi;-inkscape-font-specification:'Satoshi Bold';fill:#000000;fill-opacity:1;stroke:#ffffff;stroke-width:0.183356;stroke-opacity:0"
       d="m 233.20532,267.62224 v 0.39843 h 1.0728 l -0.66352,0.6103 v 0.293 h 0.31419 c 0.35983,0 0.52917,0.1906 0.52917,0.45165 0,0.28575 -0.187,0.46923 -0.46922,0.46923 -0.27517,0 -0.45889,-0.16928 -0.45889,-0.46561 h -0.44442 c 0,0.55739 0.3916,0.86765 0.89607,0.86765 0.52211,0 0.93483,-0.33538 0.93483,-0.86455 0,-0.45508 -0.30666,-0.74404 -0.70177,-0.82165 l 0.62787,-0.57878 v -0.35967 z" /><path
       id="text5-49-1-5"
       style="font-style:normal;font-variant:normal;font-weight:bold;font-stretch:normal;font-size:3.52778px;line-height:1.1;font-family:Satoshi;-inkscape-font-specification:'Satoshi Bold';fill:#000000;fill-opacity:1;stroke:#ffffff;stroke-width:0.183356;stroke-opacity:0"
       d="m 237.27174,363.97271 v 0.39895 h 1.07229 l -0.66301,0.61029 v 0.29249 h 0.31419 c 0.35983,0 0.52917,0.1906 0.52917,0.45166 0,0.28575 -0.187,0.46922 -0.46923,0.46922 -0.27516,0 -0.45888,-0.16927 -0.45888,-0.46561 h -0.44442 c 0,0.55739 0.3916,0.86765 0.89607,0.86765 0.52211,0 0.93483,-0.33486 0.93483,-0.86403 0,-0.45508 -0.30666,-0.74456 -0.70177,-0.82217 l 0.62787,-0.57826 v -0.36019 z" /><path
       id="text5-49-1-4"
       style="font-style:normal;font-variant:normal;font-weight:bold;font-stretch:normal;font-size:3.52778px;line-height:1.1;font-family:Satoshi;-inkscape-font-specification:'Satoshi Bold';fill:#000000;fill-opacity:1;stroke:#ffffff;stroke-width:0.183356;stroke-opacity:0"
       d="m 234.46829,302.51572 -1.16788,1.69344 v 0.3948 h 1.30896 v 0.49041 h 0.42685 v -0.49041 h 0.31367 v -0.3948 h -0.31367 v -1.69344 z m 0.14108,0.48679 v 1.20665 h -0.82941 z" /><path
       id="text5-49-1-4-6"
       style="font-style:normal;font-variant:normal;font-weight:bold;font-stretch:normal;font-size:3.52778px;line-height:1.1;font-family:Satoshi;-inkscape-font-specification:'Satoshi Bold';fill:#000000;fill-opacity:1;stroke:#ffffff;stroke-width:0.183356;stroke-opacity:0"
       d="m 238.30062,398.91993 -1.16737,1.69344 v 0.39533 h 1.30896 v 0.49041 h 0.42685 v -0.49041 h 0.31367 v -0.39533 h -0.31367 v -1.69344 z m 0.14159,0.4868 v 1.20664 h -0.82941 z" /><path
       id="text5-49-1-4-3"
       style="font-style:normal;font-variant:normal;font-weight:bold;font-stretch:normal;font-size:3.52778px;line-height:1.1;font-family:Satoshi;-inkscape-font-specification:'Satoshi Bold';fill:#000000;fill-opacity:1;stroke:#ffffff;stroke-width:0.183356;stroke-opacity:0"
       d="m 233.34414,381.38675 -0.31781,1.35134 0.39894,0.0847 c 0.0917,-0.13406 0.27167,-0.23306 0.46922,-0.23306 0.31045,0 0.49041,0.2045 0.49041,0.50436 0,0.31397 -0.19425,0.51159 -0.49764,0.51159 -0.28575,0 -0.45889,-0.1728 -0.45889,-0.4656 h -0.44803 c 0,0.52211 0.35632,0.86765 0.89606,0.86765 0.57503,0 0.96687,-0.38106 0.96687,-0.93845 0,-0.508 -0.34226,-0.85679 -0.85731,-0.85679 -0.17639,0 -0.3318,0.0455 -0.45527,0.1266 l 0.13798,-0.53588 h 1.01957 v -0.41651 z" /><path
       id="text5-49-1-4-3-9"
       style="font-style:normal;font-variant:normal;font-weight:bold;font-stretch:normal;font-size:3.52778px;line-height:1.1;font-family:Satoshi;-inkscape-font-specification:'Satoshi Bold';fill:#000000;fill-opacity:1;stroke:#ffffff;stroke-width:0.183356;stroke-opacity:0"
       d="m 234.2249,416.32456 -0.55708,0.75861 c -0.28927,0.39158 -0.3917,0.61714 -0.3917,0.92759 0,0.52917 0.41619,0.93844 0.97358,0.93844 0.55033,0 0.95963,-0.38449 0.95963,-0.93482 0,-0.52211 -0.35975,-0.89607 -0.89245,-0.89607 -0.0635,0 -0.13029,0.0108 -0.19379,0.0284 l 0.61702,-0.82217 z m 0.0248,1.16427 c 0.29633,0 0.50436,0.2151 0.50436,0.52555 0,0.31397 -0.21155,0.53278 -0.50436,0.53278 -0.30339,0 -0.5116,-0.21881 -0.5116,-0.53278 0,-0.31045 0.20468,-0.52555 0.5116,-0.52555 z" /><path
       style="fill:#FF4F00;fill-opacity:0;stroke:#FF4F00;stroke-width:0.885;stroke-dasharray:none;stroke-opacity:1"
       d="m 249.10416,313.93321 4.0501,-3.19208 -4.79038,-1.90907"
       id="path6-2-5" /><rect
       style="fill:#ececec;stroke:#ffffff;stroke-width:0.063469;stroke-opacity:0"
       id="rect1-1-1-3"
       width="111.93875"
       height="3.6131792"
       x="232.1317"
       y="333.20724" /><rect
       style="fill:#ececec;stroke:#ffffff;stroke-width:0.063469;stroke-opacity:0"
       id="rect1-5-460-0-6"
       width="111.93875"
       height="3.6131792"
       x="232.1317"
       y="338.48047" /><rect
       style="fill:#ececec;stroke:#ffffff;stroke-width:0.0357385;stroke-opacity:0"
       id="rect1-5-4-3-2-5"
       width="35.152321"
       height="3.6481006"
       x="232.1207"
       y="343.73618" /><rect
       style="fill:#ececec;fill-opacity:1;stroke:#ffffff;stroke-width:0.0523024;stroke-opacity:0"
       id="rect1-5-4-8-4-3-4"
       width="75.720863"
       height="3.6272414"
       x="268.35397"
       y="343.74661" /><path
       id="text1-2-0-0"
       style="font-weight:500;font-size:3.52778px;line-height:1.1;font-family:Satoshi;-inkscape-font-specification:'Satoshi Medium';fill:#000000;fill-opacity:1;stroke:#ffffff;stroke-width:0.183356;stroke-opacity:0"
       d="m 238.1337,326.88788 v 2.62464 h 0.42685 v -0.46922 l 0.25425,-0.26458 0.45527,0.7338 h 0.49351 l -0.64906,-1.0511 0.66353,-0.69143 h -0.54002 l -0.67748,0.73019 v -1.6123 z m -6.04666,0.046 v 2.57865 h 0.45165 v -0.55035 l 0.42685,-0.54674 0.63872,1.09709 h 0.52193 l -0.86403,-1.47794 0.8537,-1.10071 h -0.53278 l -1.04439,1.35495 v -1.35495 z m 4.76612,0.78651 c -0.53975,0 -0.93121,0.37398 -0.93121,0.91726 0,0.54328 0.39146,0.91726 0.93121,0.91726 0.53975,0 0.93173,-0.37398 0.93173,-0.91726 0,-0.54328 -0.39198,-0.91726 -0.93173,-0.91726 z m 3.92327,0 c -0.53975,0 -0.93172,0.37398 -0.93172,0.91726 0,0.54328 0.39197,0.91726 0.93172,0.91726 0.53975,0 0.93121,-0.37398 0.93121,-0.91726 0,-0.54328 -0.39146,-0.91726 -0.93121,-0.91726 z m -6.73809,0.0496 0.70177,1.81695 -0.0491,0.13022 c -0.0741,0.20461 -0.18,0.2434 -0.34933,0.2434 h -0.25787 v 0.36018 c 0.0952,0.0247 0.20148,0.0388 0.32143,0.0388 0.28575,0 0.46892,-0.13433 0.59944,-0.45889 l 0.8537,-2.13062 h -0.44442 l -0.47284,1.27021 -0.44803,-1.27021 z m 2.81482,0.33538 c 0.29633,0 0.50126,0.21477 0.50126,0.53227 0,0.3175 -0.20493,0.53278 -0.50126,0.53278 -0.29633,0 -0.50074,-0.21528 -0.50074,-0.53278 0,-0.3175 0.20441,-0.53227 0.50074,-0.53227 z m 3.92327,0 c 0.29634,0 0.50075,0.21477 0.50075,0.53227 0,0.3175 -0.20441,0.53278 -0.50075,0.53278 -0.29633,0 -0.50126,-0.21528 -0.50126,-0.53278 0,-0.3175 0.20493,-0.53227 0.50126,-0.53227 z" /><path
       style="fill:#000000;fill-opacity:0;stroke:#FF4F00;stroke-width:0.953645;stroke-dasharray:none;stroke-opacity:0.996078"
       d="m 204.48758,343.59623 c 20.46899,7.45467 32.22604,3.42554 53.6577,-1.47085"
       id="path3-1"
       sodipodi:nodetypes="cc" /><path
       style="fill:#000000;fill-opacity:0;stroke:#FF4F00;stroke-width:0.953645;stroke-dasharray:none;stroke-opacity:0.996078"
       d="m 180.17036,235.19356 c 5.48506,-12.47677 32.92798,-17.26553 73.03228,-19.06777"
       id="path3-1-0"
       sodipodi:nodetypes="cc" /><path
       style="fill:#000000;fill-opacity:0;stroke:#FF4F00;stroke-width:0.953645;stroke-dasharray:none;stroke-opacity:0.996078"
       d="m 178.31985,267.53054 c 11.36502,17.16101 44.4458,46.69943 73.97564,43.4159"
       id="path3-1-78"
       sodipodi:nodetypes="cc" /><path
       style="fill:#000000;fill-opacity:0;stroke:#FF4F00;stroke-width:0.953645;stroke-dasharray:none;stroke-opacity:0.996078"
       d="m 140.47138,276.0071 c -20.3653,187.61974 62.72609,159.99607 102.99654,148.71609"
       id="path3-1-78-3"
       sodipodi:nodetypes="cc" /><path
       style="fill:#FF4F00;fill-opacity:0;stroke:#FF4F00;stroke-width:0.885;stroke-dasharray:none;stroke-opacity:1"
       d="m 240.55639,428.29204 3.57999,-3.71163 -5.00494,-1.24213"
       id="path6-2" /><path
       style="fill:#FF4F00;fill-opacity:0;stroke:#FF4F00;stroke-width:0.885;stroke-dasharray:none;stroke-opacity:1"
       d="m 255.16297,345.53345 3.69754,-3.59454 -4.9624,-1.40244"
       id="path6-2-9" /><g
       id="text14"
       style="font-size:11.2889px;line-height:1.1;font-family:Handlee;-inkscape-font-specification:Handlee;stroke:#b9b9b9;stroke-width:0.2;stroke-opacity:0"
       aria-label="Related comments&#10;spread all over&#10;the place"><path
         d="m 131.56055,243.36847 0.0339,1.70462 q 0,0.34996 -0.15804,0.47413 -0.15805,0.12418 -0.29352,0.12418 -0.13546,0 -0.25964,-0.0339 -0.14676,-1.20791 -0.14676,-2.35938 0,-1.15146 0.0677,-2.60773 0.079,-1.45627 0.0903,-2.30294 0,-0.90311 2.41582,-0.90311 1.27565,0 2.40454,0.53058 0.58702,0.27093 0.95955,0.76764 0.37254,0.48543 0.37254,1.09503 0,0.59831 -0.27093,1.08373 -0.27094,0.48542 -0.68863,0.8128 -0.41769,0.31609 -0.95955,0.55316 -0.89183,0.4064 -1.98685,0.54187 0.54187,0.3048 1.76107,1.46755 0.36124,0.34996 0.9144,0.63218 0.55315,0.27094 1.14018,0.27094 0.0564,0 0.23706,-0.0226 0.18063,-0.0339 0.3048,-0.0452 0.12418,-0.0113 0.22578,0.0565 0.11289,0.0564 0.11289,0.21449 0,0.38382 -0.95955,0.38382 -1.11761,0 -2.22392,-0.85796 -0.48542,-0.36124 -0.94827,-0.74507 -1.14017,-0.95955 -2.1336,-1.20791 -0.0113,0.1016 -0.0113,0.37254 z m 4.63974,-3.37539 q 0,-0.94826 -0.85796,-1.4224 -0.84666,-0.48542 -2.15618,-0.48542 -0.82408,0 -1.53529,0.18062 0,0.89183 -0.0564,1.98685 -0.0564,1.08373 -0.0564,1.49013 0,0.4064 0.0113,0.59832 1.67076,-0.12418 2.58516,-0.39512 0.98214,-0.28222 1.46756,-0.69991 0.59831,-0.51929 0.59831,-1.25307 z m 2.73192,3.25121 q -0.0226,0.22578 -0.0226,0.3048 0,0.67733 0.4064,1.04987 0.41769,0.37253 0.98213,0.37253 0.56445,0 0.9144,-0.15805 0.36125,-0.15804 0.51929,-0.33866 0.4064,-0.508 0.74507,-0.508 0.12418,0 0.29351,0.0677 -0.11289,0.55316 -0.85796,1.016 -0.73377,0.45156 -1.85138,0.45156 -0.79022,0 -1.36595,-0.49671 -0.56445,-0.508 -0.56445,-1.37725 0,-0.86925 0.33867,-1.68205 0.34995,-0.82409 0.99342,-1.39982 0.65476,-0.58702 1.3208,-0.58702 0.67734,0 1.08374,0.28222 0.41769,0.27093 0.41769,0.80151 0,0.98214 -0.88054,1.6256 -0.86924,0.63218 -1.85138,0.63218 -0.25964,0 -0.62089,-0.0564 z m 0.85796,-0.37254 q 0.53058,0 0.94827,-0.33866 0.41769,-0.33867 0.58702,-0.7112 0.18062,-0.37254 0.18062,-0.67734 0,-0.3048 -0.23706,-0.53058 -0.23707,-0.23706 -0.55316,-0.23706 -0.56444,0 -1.04987,0.77893 -0.47413,0.77894 -0.67733,1.61431 0.49671,0.1016 0.80151,0.1016 z m 4.27849,-4.08658 q 0,-1.1176 -0.3048,-1.50142 0.14675,-0.21449 0.508,-0.21449 0.0677,0 0.14675,0.0113 0.28223,0.28222 0.28223,1.63689 0,0.73378 -0.0677,1.70462 -0.13546,1.69334 -0.13546,2.48356 0,2.1336 0.82409,2.1336 0,0 0.41769,-0.079 0.1016,0 0.16933,0.0903 -0.0339,0.4064 -0.66605,0.4064 -0.62089,0 -0.95955,-0.37253 -0.33867,-0.38382 -0.42898,-0.94827 -0.079,-0.57573 -0.079,-0.94827 0,-0.37253 0.0113,-0.8128 0.0113,-0.45155 0.1016,-1.28693 0.18062,-1.69334 0.18062,-2.30294 z m 5.88153,3.49956 -0.0564,1.29822 q 0,0.98214 0.22578,1.32081 0.13547,0.22577 0.37253,0.22577 0.0677,0 0.19191,-0.0339 0.23707,-0.0677 0.39512,0.0677 -0.079,0.39511 -0.79023,0.39511 -0.48542,0 -0.64346,-0.4064 -0.12418,-0.3048 -0.18063,-0.75635 -0.0564,-0.46285 -0.0903,-0.63218 -0.73378,1.39982 -1.4224,1.70462 -0.34996,0.15805 -0.8128,0.15805 -0.46285,0 -0.72249,-0.44027 -0.24836,-0.45156 -0.24836,-1.30951 0,-0.85796 0.28223,-1.79494 0.28222,-0.94827 0.82409,-1.59173 0.54186,-0.65476 1.18533,-0.65476 0.92569,0 1.23049,0.76764 0.25965,0.65476 0.25965,1.68205 z m -2.76578,-0.36124 q -0.15805,0.6096 -0.23707,1.16275 -0.079,0.54187 -0.079,0.97085 0,0.41769 0.16933,0.72249 0.18062,0.3048 0.46284,0.3048 0.60961,0 1.17405,-1.15147 0.56445,-1.15147 0.56445,-2.14489 0,-0.64347 -0.33867,-1.06116 -0.22578,-0.27093 -0.59831,-0.27093 -0.36125,0 -0.66605,0.42898 -0.29351,0.41769 -0.45155,1.03858 z m 4.27848,-1.1176 q -0.508,0 -0.68862,-0.24836 0,-0.18062 0.14675,-0.28222 0.15805,-0.1016 0.33867,-0.12418 0.18062,-0.0339 0.58702,-0.0564 0.0339,-0.3048 0.0339,-0.77893 0.0113,-0.48542 0.0226,-0.82409 0.0339,-0.89182 0.27093,-1.09502 0.1016,-0.0903 0.21449,-0.0903 0.12418,0 0.21449,0.0226 0.0339,0.8128 0.0339,0.98214 l -0.0677,1.69333 q 0.0226,0.0113 0.12418,0.0113 l 0.8128,-0.0339 q 0.88054,0 0.88054,0.27093 0,0.38382 -0.31609,0.45156 -0.14676,0.0339 -0.34996,0.0339 -0.19191,0 -0.508,-0.0451 -0.3048,-0.0565 -0.44027,-0.0565 -0.13546,0 -0.18062,0.0113 -0.0339,0.32738 -0.0339,0.65476 0,0.31609 0.0113,0.80151 0.0226,0.47413 0.0903,1.14018 0.079,0.66604 0.32738,1.15147 0.24836,0.47413 0.63218,0.47413 0.19191,0 0.45156,-0.14676 0.25964,-0.15804 0.39511,-0.15804 0.14675,0 0.24835,0.0677 0.11289,0.0564 0.11289,0.13547 0,0.23707 -0.48542,0.46284 -0.47413,0.21449 -0.8128,0.21449 -1.24178,0 -1.54658,-2.34809 -0.0903,-0.67733 -0.13547,-2.32551 -0.18062,0.0339 -0.38382,0.0339 z m 4.60587,2.4384 q -0.0226,0.22578 -0.0226,0.3048 0,0.67733 0.4064,1.04987 0.41769,0.37253 0.98214,0.37253 0.56444,0 0.9144,-0.15805 0.36124,-0.15804 0.51929,-0.33866 0.4064,-0.508 0.74506,-0.508 0.12418,0 0.29352,0.0677 -0.11289,0.55316 -0.85796,1.016 -0.73378,0.45156 -1.85138,0.45156 -0.79022,0 -1.36596,-0.49671 -0.56444,-0.508 -0.56444,-1.37725 0,-0.86925 0.33866,-1.68205 0.34996,-0.82409 0.99343,-1.39982 0.65475,-0.58702 1.3208,-0.58702 0.67733,0 1.08373,0.28222 0.41769,0.27093 0.41769,0.80151 0,0.98214 -0.88053,1.6256 -0.86925,0.63218 -1.85138,0.63218 -0.25965,0 -0.62089,-0.0564 z m 0.85796,-0.37254 q 0.53057,0 0.94826,-0.33866 0.41769,-0.33867 0.58703,-0.7112 0.18062,-0.37254 0.18062,-0.67734 0,-0.3048 -0.23707,-0.53058 -0.23706,-0.23706 -0.55315,-0.23706 -0.56445,0 -1.04987,0.77893 -0.47414,0.77894 -0.67734,1.61431 0.49672,0.1016 0.80152,0.1016 z m 8.15058,-6.37822 q -0.42898,3.88338 -0.42898,5.54285 0,1.64817 0.3048,3.29635 -0.22578,0.22578 -0.39511,0.22578 -0.16934,0 -0.28222,-0.0452 -0.23707,-0.83538 -0.28223,-1.81752 -0.27093,0.42898 -0.4064,0.6096 -0.12418,0.18063 -0.44026,0.53058 -0.57574,0.67734 -1.36596,0.67734 -0.59831,0 -0.86925,-0.55316 -0.25964,-0.56444 -0.25964,-1.43369 0,-0.88053 0.19191,-1.67076 0.2032,-0.80151 0.68862,-1.37724 0.48543,-0.58703 1.19663,-0.58703 0.42897,0 0.79022,0.18063 0.36124,0.18062 0.49671,0.48542 0.0226,-0.3048 0.0452,-0.93698 0.0226,-0.63218 0.0452,-1.1176 0.0339,-0.49671 0.1016,-1.00471 0.12418,-1.08374 0.55316,-1.08374 0.14675,0 0.31609,0.079 z m -1.3208,4.4704 q -0.13547,-0.24836 -0.37254,-0.36125 -0.23706,-0.12417 -0.63218,-0.12417 -0.38382,0 -0.72249,0.44026 -0.66604,0.86925 -0.66604,2.51743 0,0.53058 0.16933,1.06116 0.16934,0.51929 0.49671,0.51929 0.47414,0 0.92569,-0.62089 0.45156,-0.62089 0.69992,-1.42241 0.24835,-0.8128 0.24835,-1.45626 0,-0.3048 -0.14675,-0.55316 z m 8.76018,0.33867 q -0.21449,0.21449 -0.42898,0.21449 -0.21449,0 -0.34996,-0.18063 -0.12418,-0.19191 -0.2032,-0.4064 -0.079,-0.22577 -0.29351,-0.4064 -0.2032,-0.19191 -0.51929,-0.19191 -0.44027,0.0452 -0.80151,0.63218 -0.36125,0.57573 -0.53058,1.27565 -0.16933,0.69991 -0.16933,1.3208 0,0.6096 0.33866,1.06115 0.34996,0.44027 0.93698,0.44027 0.67734,0 1.08374,-0.47413 0.16933,-0.2032 0.31609,-0.4064 0.36124,-0.47414 0.65475,-0.47414 0.1016,0 0.29351,0.0564 0,0.41769 -0.76764,1.10631 -0.75636,0.67733 -1.64818,0.67733 -0.89182,0 -1.41111,-0.56444 -0.508,-0.57574 -0.508,-1.47885 0,-1.16275 0.56444,-2.32551 0.28222,-0.56445 0.76765,-0.92569 0.48542,-0.37253 1.08373,-0.37253 0.59831,0 0.95956,0.4064 0.37253,0.39511 0.63218,1.016 z m 1.62559,-0.45156 q 0.57573,-0.88053 1.65947,-0.88053 1.08373,0 1.7272,0.88053 0.65475,0.88054 0.65475,2.00943 0,1.1176 -0.7112,1.89653 -0.7112,0.77893 -1.80622,0.77893 -1.09502,0 -1.59174,-0.6096 -0.49671,-0.62089 -0.49671,-1.73849 0,-1.45626 0.56445,-2.3368 z m 0.49671,0.59831 q -0.14676,0.44027 -0.22578,0.88054 -0.0677,0.44026 -0.0677,0.82409 0,0.37253 0.0564,0.68862 0.0565,0.3048 0.19191,0.6096 0.13547,0.29351 0.4064,0.47413 0.27094,0.16934 0.64347,0.16934 0.75636,0 1.26436,-0.62089 0.51929,-0.62089 0.51929,-1.50143 0,-0.88053 -0.47414,-1.70462 -0.46284,-0.83538 -1.14018,-0.83538 -0.4064,0 -0.7112,0.28222 -0.3048,0.28223 -0.46284,0.73378 z m 5.1816,-0.84667 q 0.12418,0 0.12418,1.49014 0,0.23707 -0.0113,0.75636 0,0.51929 0,0.54186 0.11289,-1.27564 0.22578,-1.73849 0.12418,-0.46284 0.24835,-0.79022 0.12418,-0.33867 0.27094,-0.51929 0.36124,-0.46284 0.83538,-0.46284 0.59831,0 0.89182,0.59831 0.3048,0.59831 0.31609,1.59173 0.28222,-2.04329 1.49013,-2.04329 0.51929,0 0.73378,0.53058 0.21449,0.53058 0.21449,1.26436 l -0.0339,1.71591 q 0,1.69333 0.73377,1.69333 l 0.64347,-0.1016 q 0.0564,0 0.11289,0.0113 -0.11289,0.16934 -0.41769,0.27094 -0.3048,0.0903 -0.59831,0.0903 -0.57573,0 -0.86925,-0.508 -0.28222,-0.51929 -0.3048,-1.08374 -0.0226,-0.57573 -0.0226,-0.98213 l 0.0226,-1.00471 q 0,-0.49672 -0.0677,-0.94827 -0.0564,-0.45156 -0.31609,-0.45156 -0.38382,0 -0.74507,1.61432 -0.34995,1.60302 -0.42897,3.048 -0.19192,0.2032 -0.48543,0.21449 -0.0903,0 -0.16933,-0.0339 -0.1016,-0.58702 -0.11289,-1.95298 0,-1.37724 -0.13547,-2.19005 -0.13546,-0.8128 -0.6096,-0.8128 -0.31609,0 -0.51929,0.69992 -0.32738,1.09502 -0.58702,3.40924 -0.0677,0.54187 -0.1016,0.77894 -0.23707,0.2032 -0.48542,0.2032 l -0.16934,-0.0226 q -0.15804,-1.88525 -0.15804,-4.6736 0.12418,-0.20321 0.48542,-0.20321 z m 7.54098,0 q 0.12418,0 0.12418,1.49014 0,0.23707 -0.0113,0.75636 0,0.51929 0,0.54186 0.11289,-1.27564 0.22578,-1.73849 0.12417,-0.46284 0.24835,-0.79022 0.12418,-0.33867 0.27094,-0.51929 0.36124,-0.46284 0.83537,-0.46284 0.59832,0 0.89183,0.59831 0.3048,0.59831 0.31609,1.59173 0.28222,-2.04329 1.49013,-2.04329 0.51929,0 0.73378,0.53058 0.21449,0.53058 0.21449,1.26436 l -0.0339,1.71591 q 0,1.69333 0.73378,1.69333 l 0.64347,-0.1016 q 0.0564,0 0.11289,0.0113 -0.11289,0.16934 -0.41769,0.27094 -0.3048,0.0903 -0.59831,0.0903 -0.57574,0 -0.86925,-0.508 -0.28222,-0.51929 -0.3048,-1.08374 -0.0226,-0.57573 -0.0226,-0.98213 l 0.0226,-1.00471 q 0,-0.49672 -0.0677,-0.94827 -0.0564,-0.45156 -0.31609,-0.45156 -0.38382,0 -0.74507,1.61432 -0.34996,1.60302 -0.42898,3.048 -0.19191,0.2032 -0.48542,0.21449 -0.0903,0 -0.16933,-0.0339 -0.1016,-0.58702 -0.11289,-1.95298 0,-1.37724 -0.13547,-2.19005 -0.13547,-0.8128 -0.6096,-0.8128 -0.31609,0 -0.51929,0.69992 -0.32738,1.09502 -0.58702,3.40924 -0.0677,0.54187 -0.1016,0.77894 -0.23707,0.2032 -0.48543,0.2032 l -0.16933,-0.0226 q -0.15804,-1.88525 -0.15804,-4.6736 0.12417,-0.20321 0.48542,-0.20321 z m 7.58613,2.64161 q -0.0226,0.22578 -0.0226,0.3048 0,0.67733 0.40641,1.04987 0.41768,0.37253 0.98213,0.37253 0.56444,0 0.9144,-0.15805 0.36125,-0.15804 0.51929,-0.33866 0.4064,-0.508 0.74507,-0.508 0.12418,0 0.29351,0.0677 -0.11289,0.55316 -0.85796,1.016 -0.73378,0.45156 -1.85138,0.45156 -0.79022,0 -1.36595,-0.49671 -0.56445,-0.508 -0.56445,-1.37725 0,-0.86925 0.33867,-1.68205 0.34995,-0.82409 0.99342,-1.39982 0.65476,-0.58702 1.3208,-0.58702 0.67734,0 1.08374,0.28222 0.41769,0.27093 0.41769,0.80151 0,0.98214 -0.88054,1.6256 -0.86924,0.63218 -1.85138,0.63218 -0.25964,0 -0.62089,-0.0564 z m 0.85796,-0.37254 q 0.53058,0 0.94827,-0.33866 0.41769,-0.33867 0.58702,-0.7112 0.18062,-0.37254 0.18062,-0.67734 0,-0.3048 -0.23707,-0.53058 -0.23706,-0.23706 -0.55315,-0.23706 -0.56445,0 -1.04987,0.77893 -0.47413,0.77894 -0.67733,1.61431 0.49671,0.1016 0.80151,0.1016 z m 8.54569,2.3481 q -0.2032,0.21448 -0.46285,0.21448 -0.48542,0 -0.72249,-0.51929 -0.23706,-0.51928 -0.28222,-1.26435 -0.0339,-0.74507 -0.0452,-1.49014 -0.0113,-0.74506 -0.12418,-1.26435 -0.1016,-0.51929 -0.39511,-0.51929 -0.39512,0 -0.67734,0.7112 -0.27093,0.7112 -0.38382,1.58044 -0.31609,2.42712 -0.6096,2.72063 -0.2032,0.1016 -0.34996,0.1016 -0.14675,0 -0.24835,-0.0339 -0.23707,-1.03858 -0.3048,-3.57858 -0.0226,-1.26436 -0.0452,-1.63689 0.23707,-0.15804 0.4064,-0.15804 0.16934,0 0.27094,0.0339 0.0564,0.48542 0.0564,1.98685 0.0113,1.50142 0.0226,1.7272 0.0564,-0.23707 0.13546,-0.76764 0.0903,-0.53058 0.15805,-0.86925 0.0677,-0.34996 0.21449,-0.8128 0.14675,-0.46285 0.32738,-0.73378 0.18062,-0.28222 0.49671,-0.47413 0.31609,-0.2032 0.7112,-0.2032 0.53058,0 0.76764,0.48542 0.24836,0.47413 0.27094,1.18533 0.0226,0.7112 0.0226,1.44498 0.0113,0.73378 0.18062,1.34338 0.18062,0.6096 0.6096,0.79023 z m 0.74507,-4.41396 q -0.508,0 -0.68862,-0.24836 0,-0.18062 0.14675,-0.28222 0.15805,-0.1016 0.33867,-0.12418 0.18062,-0.0339 0.58702,-0.0564 0.0339,-0.3048 0.0339,-0.77893 0.0113,-0.48542 0.0226,-0.82409 0.0339,-0.89182 0.27093,-1.09502 0.1016,-0.0903 0.21449,-0.0903 0.12418,0 0.21449,0.0226 0.0339,0.8128 0.0339,0.98214 l -0.0677,1.69333 q 0.0226,0.0113 0.12418,0.0113 l 0.8128,-0.0339 q 0.88053,0 0.88053,0.27093 0,0.38382 -0.31608,0.45156 -0.14676,0.0339 -0.34996,0.0339 -0.19191,0 -0.508,-0.0451 -0.3048,-0.0565 -0.44027,-0.0565 -0.13547,0 -0.18062,0.0113 -0.0339,0.32738 -0.0339,0.65476 0,0.31609 0.0113,0.80151 0.0226,0.47413 0.0903,1.14018 0.079,0.66604 0.32738,1.15147 0.24836,0.47413 0.63218,0.47413 0.19191,0 0.45156,-0.14676 0.25964,-0.15804 0.39511,-0.15804 0.14675,0 0.24835,0.0677 0.11289,0.0564 0.11289,0.13547 0,0.23707 -0.48542,0.46284 -0.47414,0.21449 -0.8128,0.21449 -1.24178,0 -1.54658,-2.34809 -0.0903,-0.67733 -0.13547,-2.32551 -0.18062,0.0339 -0.38382,0.0339 z m 6.86364,0.21448 q -0.1016,-0.25964 -0.38382,-0.4064 -0.28222,-0.14675 -0.69991,-0.14675 -0.41769,0 -0.79022,0.24835 -0.36125,0.24836 -0.36125,0.66605 0,0.41769 0.33867,0.66604 0.34995,0.23707 0.83538,0.36125 0.49671,0.12418 0.99342,0.27093 0.49671,0.13547 0.83538,0.46285 0.34996,0.31609 0.34996,0.83538 0,0.75635 -0.63218,1.15146 -0.62089,0.39512 -1.50143,0.39512 -0.51929,0 -1.36595,-0.28223 -0.83538,-0.28222 -0.83538,-0.67733 0,-0.29351 0.49671,-0.29351 0.14675,0 0.38382,0.18062 0.72249,0.53058 1.47885,0.53058 0.4064,0 0.69991,-0.13547 0.54187,-0.25964 0.54187,-0.83538 0,-0.34995 -0.34996,-0.56444 -0.33867,-0.21449 -0.83538,-0.33867 -0.48542,-0.12418 -0.98213,-0.27093 -0.49671,-0.14676 -0.84667,-0.48543 -0.33867,-0.34995 -0.33867,-0.88053 0,-0.68862 0.62089,-1.1176 0.62089,-0.42898 1.53529,-0.42898 0.62089,0 1.1176,0.32738 0.508,0.31609 0.508,0.92569 0,0.4064 -0.46284,0.4064 -0.19191,0 -0.25964,-0.0677 -0.0564,-0.0677 -0.0677,-0.23707 0,-0.18062 -0.0226,-0.25965 z"
         id="path24" /><path
         d="m 133.36678,253.43816 q -0.1016,-0.25964 -0.38383,-0.4064 -0.28222,-0.14675 -0.69991,-0.14675 -0.41769,0 -0.79022,0.24835 -0.36125,0.24836 -0.36125,0.66605 0,0.41769 0.33867,0.66604 0.34996,0.23707 0.83538,0.36125 0.49671,0.12418 0.99342,0.27093 0.49672,0.13547 0.83538,0.46285 0.34996,0.31609 0.34996,0.83538 0,0.75635 -0.63218,1.15146 -0.62089,0.39512 -1.50142,0.39512 -0.51929,0 -1.36596,-0.28223 -0.83538,-0.28222 -0.83538,-0.67733 0,-0.29351 0.49671,-0.29351 0.14676,0 0.38382,0.18062 0.72249,0.53058 1.47885,0.53058 0.4064,0 0.69991,-0.13547 0.54187,-0.25964 0.54187,-0.83538 0,-0.34995 -0.34996,-0.56444 -0.33866,-0.21449 -0.83537,-0.33867 -0.48543,-0.12418 -0.98214,-0.27093 -0.49671,-0.14676 -0.84667,-0.48542 -0.33866,-0.34996 -0.33866,-0.88054 0,-0.68862 0.62089,-1.1176 0.62089,-0.42898 1.53529,-0.42898 0.62089,0 1.1176,0.32738 0.508,0.31609 0.508,0.92569 0,0.4064 -0.46285,0.4064 -0.19191,0 -0.25964,-0.0677 -0.0564,-0.0677 -0.0677,-0.23707 0,-0.18062 -0.0226,-0.25965 z m 2.74321,4.16561 q 0.0339,0.9144 0.22578,2.58516 -0.21449,0.21449 -0.508,0.21449 -0.0564,0 -0.12418,-0.0113 -0.0113,-0.44027 -0.16933,-1.99814 -0.14676,-1.55787 -0.14676,-2.38196 0,-0.83537 0.1016,-1.44497 0.1016,-0.60961 0.34996,-1.14018 0.508,-1.09503 1.87395,-1.09503 0.84667,0 1.38854,0.92569 0.54187,0.92569 0.54187,2.15618 0,0.97085 -0.63218,1.70463 -0.63218,0.73378 -1.74978,0.73378 -0.68863,0 -1.15147,-0.24836 z m 1.51271,-4.66232 q -0.95955,0 -1.27564,0.99343 -0.27094,0.84666 -0.27094,2.3368 0,0.54187 0.0113,0.80151 1.00471,0.21449 1.36596,0.21449 0.65475,0 1.03858,-0.51929 0.38382,-0.53058 0.38382,-1.28693 0,-1.11761 -0.33867,-1.82881 -0.32738,-0.7112 -0.9144,-0.7112 z m 4.25593,3.90596 0.0339,0.64347 q 0,0.24836 -0.14675,0.34996 -0.13547,0.0903 -0.28223,0.0903 -0.13546,0 -0.28222,-0.0452 -0.24835,-1.30951 -0.38382,-3.26249 -0.12418,-1.95298 -0.14676,-2.21262 0.16934,-0.15805 0.34996,-0.15805 0.19191,0 0.33867,0.0452 0.0452,0.32737 0.0677,1.44498 0.0226,1.1176 0.0564,1.39982 0.15805,-0.94827 0.56445,-1.77236 0.22578,-0.46284 0.58702,-0.73378 0.37254,-0.28222 0.79022,-0.28222 0.42898,0 0.77894,0.38382 0.36124,0.37254 0.36124,0.67734 0,0.11289 -0.13546,0.18062 -0.13547,0.0564 -0.3048,0.0564 -0.15805,0 -0.24836,-0.12417 -0.0903,-0.12418 -0.12418,-0.27094 -0.0339,-0.15804 -0.14675,-0.28222 -0.11289,-0.12418 -0.3048,-0.12418 -0.508,0 -0.86925,0.9144 -0.55315,1.36596 -0.55315,3.08187 z m 3.77049,-1.18533 q -0.0226,0.22578 -0.0226,0.3048 0,0.67733 0.4064,1.04987 0.41769,0.37253 0.98213,0.37253 0.56445,0 0.9144,-0.15804 0.36125,-0.15805 0.51929,-0.33867 0.4064,-0.508 0.74507,-0.508 0.12418,0 0.29351,0.0677 -0.11289,0.55316 -0.85796,1.016 -0.73377,0.45156 -1.85138,0.45156 -0.79022,0 -1.36595,-0.49671 -0.56445,-0.508 -0.56445,-1.37725 0,-0.86924 0.33867,-1.68205 0.34995,-0.82408 0.99342,-1.39982 0.65476,-0.58702 1.3208,-0.58702 0.67734,0 1.08374,0.28222 0.41769,0.27093 0.41769,0.80151 0,0.98214 -0.88054,1.6256 -0.86924,0.63218 -1.85138,0.63218 -0.25964,0 -0.62089,-0.0564 z m 0.85796,-0.37254 q 0.53058,0 0.94827,-0.33866 0.41769,-0.33867 0.58702,-0.7112 0.18062,-0.37254 0.18062,-0.67734 0,-0.3048 -0.23706,-0.53058 -0.23707,-0.23706 -0.55316,-0.23706 -0.56444,0 -1.04987,0.77893 -0.47413,0.77894 -0.67733,1.61431 0.49671,0.1016 0.80151,0.1016 z m 7.47325,-0.58702 -0.0565,1.29823 q 0,0.98213 0.22578,1.3208 0.13547,0.22577 0.37254,0.22577 0.0677,0 0.19191,-0.0339 0.23706,-0.0677 0.39511,0.0677 -0.079,0.39511 -0.79023,0.39511 -0.48542,0 -0.64346,-0.4064 -0.12418,-0.3048 -0.18062,-0.75635 -0.0565,-0.46285 -0.0903,-0.63218 -0.73377,1.39982 -1.4224,1.70462 -0.34995,0.15805 -0.8128,0.15805 -0.46284,0 -0.72249,-0.44027 -0.24835,-0.45156 -0.24835,-1.30951 0,-0.85796 0.28222,-1.79494 0.28222,-0.94827 0.82409,-1.59173 0.54187,-0.65476 1.18533,-0.65476 0.92569,0 1.23049,0.76765 0.25965,0.65475 0.25965,1.68204 z m -2.76578,-0.36124 q -0.15805,0.6096 -0.23707,1.16275 -0.079,0.54187 -0.079,0.97085 0,0.41769 0.16933,0.72249 0.18062,0.3048 0.46285,0.3048 0.6096,0 1.17404,-1.15147 0.56445,-1.15147 0.56445,-2.14489 0,-0.64347 -0.33867,-1.06116 -0.22578,-0.27093 -0.59831,-0.27093 -0.36125,0 -0.66605,0.42898 -0.29351,0.41769 -0.45155,1.03858 z m 8.51182,-5.42996 q -0.42898,3.88338 -0.42898,5.54285 0,1.64818 0.3048,3.29635 -0.22578,0.22578 -0.39511,0.22578 -0.16933,0 -0.28222,-0.0451 -0.23707,-0.83538 -0.28222,-1.81752 -0.27094,0.42898 -0.4064,0.6096 -0.12418,0.18063 -0.44027,0.53058 -0.57574,0.67734 -1.36596,0.67734 -0.59831,0 -0.86924,-0.55316 -0.25965,-0.56444 -0.25965,-1.43369 0,-0.88053 0.19191,-1.67076 0.2032,-0.80151 0.68863,-1.37724 0.48542,-0.58703 1.19662,-0.58703 0.42898,0 0.79022,0.18063 0.36125,0.18062 0.49671,0.48542 0.0226,-0.3048 0.0452,-0.93698 0.0226,-0.63218 0.0451,-1.1176 0.0339,-0.49671 0.1016,-1.00471 0.12418,-1.08374 0.55316,-1.08374 0.14676,0 0.31609,0.079 z m -1.3208,4.4704 q -0.13547,-0.24836 -0.37253,-0.36124 -0.23707,-0.12418 -0.63218,-0.12418 -0.38383,0 -0.72249,0.44026 -0.66605,0.86925 -0.66605,2.51743 0,0.53058 0.16934,1.06116 0.16933,0.51929 0.49671,0.51929 0.47413,0 0.92569,-0.62089 0.45155,-0.62089 0.69991,-1.42241 0.24835,-0.8128 0.24835,-1.45626 0,-0.3048 -0.14675,-0.55316 z m 8.5344,1.3208 -0.0564,1.29823 q 0,0.98213 0.22578,1.3208 0.13546,0.22577 0.37253,0.22577 0.0677,0 0.19191,-0.0339 0.23707,-0.0677 0.39511,0.0677 -0.079,0.39511 -0.79022,0.39511 -0.48542,0 -0.64347,-0.4064 -0.12418,-0.3048 -0.18062,-0.75635 -0.0565,-0.46285 -0.0903,-0.63218 -0.73378,1.39982 -1.4224,1.70462 -0.34996,0.15805 -0.8128,0.15805 -0.46285,0 -0.72249,-0.44027 -0.24836,-0.45156 -0.24836,-1.30951 0,-0.85796 0.28222,-1.79494 0.28223,-0.94827 0.82409,-1.59173 0.54187,-0.65476 1.18534,-0.65476 0.92569,0 1.23049,0.76765 0.25964,0.65475 0.25964,1.68204 z m -2.76578,-0.36124 q -0.15804,0.6096 -0.23707,1.16275 -0.079,0.54187 -0.079,0.97085 0,0.41769 0.16934,0.72249 0.18062,0.3048 0.46284,0.3048 0.6096,0 1.17405,-1.15147 0.56444,-1.15147 0.56444,-2.14489 0,-0.64347 -0.33867,-1.06116 -0.22577,-0.27093 -0.59831,-0.27093 -0.36124,0 -0.66604,0.42898 -0.29351,0.41769 -0.45156,1.03858 z m 4.63973,-3.13832 q 0,-1.1176 -0.3048,-1.50142 0.14676,-0.21449 0.508,-0.21449 0.0677,0 0.14676,0.0113 0.28222,0.28222 0.28222,1.63689 0,0.73378 -0.0677,1.70462 -0.13546,1.69334 -0.13546,2.48356 0,2.1336 0.82409,2.1336 0,0 0.41769,-0.079 0.1016,0 0.16933,0.0903 -0.0339,0.4064 -0.66604,0.4064 -0.62089,0 -0.95956,-0.37253 -0.33867,-0.38382 -0.42898,-0.94827 -0.079,-0.57573 -0.079,-0.94827 0,-0.37253 0.0113,-0.8128 0.0113,-0.45155 0.1016,-1.28693 0.18062,-1.69334 0.18062,-2.30294 z m 2.68677,0 q 0,-1.1176 -0.3048,-1.50142 0.14676,-0.21449 0.508,-0.21449 0.0677,0 0.14676,0.0113 0.28222,0.28222 0.28222,1.63689 0,0.73378 -0.0677,1.70462 -0.13547,1.69334 -0.13547,2.48356 0,2.1336 0.82409,2.1336 0,0 0.41769,-0.079 0.1016,0 0.16933,0.0903 -0.0339,0.4064 -0.66604,0.4064 -0.62089,0 -0.95956,-0.37253 -0.33867,-0.38382 -0.42898,-0.94827 -0.079,-0.57573 -0.079,-0.94827 0,-0.37253 0.0113,-0.8128 0.0113,-0.45155 0.1016,-1.28693 0.18062,-1.69334 0.18062,-2.30294 z m 5.24935,2.06587 q 0.57573,-0.88053 1.65946,-0.88053 1.08374,0 1.72721,0.88053 0.65475,0.88054 0.65475,2.00943 0,1.1176 -0.7112,1.89653 -0.7112,0.77894 -1.80622,0.77894 -1.09503,0 -1.59174,-0.60961 -0.49671,-0.62089 -0.49671,-1.73849 0,-1.45626 0.56445,-2.3368 z m 0.49671,0.59831 q -0.14676,0.44027 -0.22578,0.88054 -0.0677,0.44026 -0.0677,0.82409 0,0.37253 0.0564,0.68862 0.0564,0.3048 0.19191,0.6096 0.13547,0.29351 0.4064,0.47413 0.27094,0.16934 0.64347,0.16934 0.75636,0 1.26436,-0.62089 0.51929,-0.62089 0.51929,-1.50143 0,-0.88053 -0.47414,-1.70462 -0.46284,-0.83538 -1.14018,-0.83538 -0.4064,0 -0.7112,0.28222 -0.3048,0.28223 -0.46284,0.73378 z m 4.07529,-1.34338 q 0.1016,-0.21449 0.44027,-0.21449 0.14675,0 0.24835,0.0677 0.31609,0.86924 0.62089,1.74978 0.57574,1.61431 1.07245,2.55129 0.23706,-1.37725 0.9144,-2.77707 0.68862,-1.39982 1.25307,-1.39982 0.16933,0 0.33866,0.079 -1.29822,1.70462 -1.86266,4.51556 -0.11289,0.65475 -0.24836,0.74507 -0.14676,0.1016 -0.3048,0.1016 -0.15805,0 -0.24836,-0.0677 -0.079,-0.0677 -0.12417,-0.13546 -0.0339,-0.0677 -0.1016,-0.22578 -0.0564,-0.15805 -0.0903,-0.21449 -1.15146,-2.15618 -1.90782,-4.77521 z m 5.94924,3.13832 q -0.0226,0.22578 -0.0226,0.3048 0,0.67733 0.4064,1.04987 0.41769,0.37253 0.98214,0.37253 0.56444,0 0.9144,-0.15804 0.36124,-0.15805 0.51929,-0.33867 0.4064,-0.508 0.74507,-0.508 0.12417,0 0.29351,0.0677 -0.11289,0.55316 -0.85796,1.016 -0.73378,0.45156 -1.85138,0.45156 -0.79022,0 -1.36595,-0.49671 -0.56445,-0.508 -0.56445,-1.37725 0,-0.86924 0.33867,-1.68205 0.34995,-0.82408 0.99342,-1.39982 0.65476,-0.58702 1.3208,-0.58702 0.67734,0 1.08374,0.28222 0.41769,0.27093 0.41769,0.80151 0,0.98214 -0.88054,1.6256 -0.86924,0.63218 -1.85138,0.63218 -0.25964,0 -0.62089,-0.0564 z m 0.85796,-0.37254 q 0.53058,0 0.94827,-0.33866 0.41769,-0.33867 0.58702,-0.7112 0.18062,-0.37254 0.18062,-0.67734 0,-0.3048 -0.23707,-0.53058 -0.23706,-0.23706 -0.55315,-0.23706 -0.56445,0 -1.04987,0.77893 -0.47413,0.77894 -0.67733,1.61431 0.49671,0.1016 0.80151,0.1016 z m 5.01226,1.55787 0.0339,0.64347 q 0,0.24836 -0.14676,0.34996 -0.13546,0.0903 -0.28222,0.0903 -0.13547,0 -0.28222,-0.0452 -0.24836,-1.30951 -0.38382,-3.26249 -0.12418,-1.95298 -0.14676,-2.21262 0.16933,-0.15805 0.34996,-0.15805 0.19191,0 0.33866,0.0452 0.0452,0.32737 0.0677,1.44498 0.0226,1.1176 0.0564,1.39982 0.15804,-0.94827 0.56445,-1.77236 0.22577,-0.46284 0.58702,-0.73378 0.37253,-0.28222 0.79022,-0.28222 0.42898,0 0.77894,0.38382 0.36124,0.37254 0.36124,0.67734 0,0.11289 -0.13547,0.18062 -0.13546,0.0564 -0.3048,0.0564 -0.15804,0 -0.24835,-0.12417 -0.0903,-0.12418 -0.12418,-0.27094 -0.0339,-0.15804 -0.14676,-0.28222 -0.11289,-0.12418 -0.3048,-0.12418 -0.508,0 -0.86924,0.9144 -0.55316,1.36596 -0.55316,3.08187 z"
         id="path25" /><path
         d="m 130.54455,265.64147 q -0.508,0 -0.68862,-0.24836 0,-0.18062 0.14675,-0.28222 0.15805,-0.1016 0.33867,-0.12418 0.18062,-0.0339 0.58702,-0.0564 0.0339,-0.3048 0.0339,-0.77894 0.0113,-0.48542 0.0226,-0.82409 0.0339,-0.89182 0.27093,-1.09502 0.1016,-0.0903 0.21449,-0.0903 0.12418,0 0.21449,0.0226 0.0339,0.8128 0.0339,0.98213 l -0.0677,1.69333 q 0.0226,0.0113 0.12418,0.0113 l 0.8128,-0.0339 q 0.88054,0 0.88054,0.27093 0,0.38382 -0.31609,0.45156 -0.14676,0.0339 -0.34996,0.0339 -0.19191,0 -0.508,-0.0452 -0.3048,-0.0564 -0.44027,-0.0564 -0.13546,0 -0.18062,0.0113 -0.0339,0.32738 -0.0339,0.65476 0,0.31609 0.0113,0.80151 0.0226,0.47413 0.0903,1.14018 0.079,0.66604 0.32737,1.15147 0.24836,0.47413 0.63218,0.47413 0.19191,0 0.45156,-0.14676 0.25964,-0.15804 0.39511,-0.15804 0.14676,0 0.24836,0.0677 0.11288,0.0565 0.11288,0.13547 0,0.23707 -0.48542,0.46285 -0.47413,0.21448 -0.8128,0.21448 -1.24178,0 -1.54658,-2.34809 -0.0903,-0.67733 -0.13547,-2.32551 -0.18062,0.0339 -0.38382,0.0339 z m 4.09787,2.39324 0.1016,-5.05742 q 0,-0.58703 -0.0677,-0.80152 0.2032,-0.18062 0.62089,-0.18062 0.16933,1.20791 0.16933,3.10445 0,0.56444 -0.1016,2.61902 0.53058,-2.85609 1.89654,-2.85609 0.48542,0 0.74506,0.51929 0.27094,0.508 0.33867,1.24178 0.0677,0.73378 0.11289,1.46756 0.11289,1.76107 0.63218,1.76107 0.0113,0 0.21449,-0.0677 0.45155,-0.13546 0.508,-0.0677 0,0.12418 -0.34996,0.31609 -0.34995,0.18062 -0.64347,0.18062 -0.49671,0 -0.76764,-0.508 -0.25965,-0.51929 -0.32738,-1.25307 -0.0564,-0.73378 -0.0903,-1.45627 -0.0226,-0.73377 -0.14676,-1.24177 -0.12417,-0.51929 -0.41769,-0.51929 -0.36124,0 -0.66604,0.79022 -0.29351,0.77893 -0.46285,1.7272 -0.16933,0.94827 -0.41768,1.73849 -0.23707,0.77894 -0.48543,0.77894 -0.39511,0 -0.39511,-2.23521 z m 6.01699,0.0452 q -0.0226,0.22578 -0.0226,0.3048 0,0.67733 0.4064,1.04987 0.41769,0.37253 0.98213,0.37253 0.56445,0 0.9144,-0.15804 0.36125,-0.15805 0.51929,-0.33867 0.4064,-0.508 0.74507,-0.508 0.12418,0 0.29351,0.0677 -0.11289,0.55316 -0.85796,1.016 -0.73377,0.45156 -1.85138,0.45156 -0.79022,0 -1.36595,-0.49671 -0.56445,-0.508 -0.56445,-1.37725 0,-0.86924 0.33867,-1.68204 0.34996,-0.82409 0.99342,-1.39983 0.65476,-0.58702 1.3208,-0.58702 0.67734,0 1.08374,0.28222 0.41769,0.27094 0.41769,0.80151 0,0.98214 -0.88054,1.62561 -0.86924,0.63217 -1.85138,0.63217 -0.25964,0 -0.62089,-0.0564 z m 0.85796,-0.37253 q 0.53058,0 0.94827,-0.33867 0.41769,-0.33867 0.58702,-0.7112 0.18062,-0.37254 0.18062,-0.67734 0,-0.3048 -0.23706,-0.53057 -0.23707,-0.23707 -0.55316,-0.23707 -0.56444,0 -1.04987,0.77893 -0.47413,0.77894 -0.67733,1.61432 0.49671,0.1016 0.80151,0.1016 z m 7.112,2.31422 q 0.0339,0.9144 0.22578,2.58516 -0.21449,0.21449 -0.508,0.21449 -0.0564,0 -0.12418,-0.0113 -0.0113,-0.44027 -0.16933,-1.99814 -0.14676,-1.55787 -0.14676,-2.38196 0,-0.83537 0.1016,-1.44497 0.1016,-0.6096 0.34996,-1.14018 0.508,-1.09503 1.87396,-1.09503 0.84666,0 1.38853,0.92569 0.54187,0.92569 0.54187,2.15618 0,0.97085 -0.63218,1.70463 -0.63218,0.73378 -1.74978,0.73378 -0.68862,0 -1.15147,-0.24836 z m 1.51271,-4.66232 q -0.95955,0 -1.27564,0.99343 -0.27093,0.84666 -0.27093,2.3368 0,0.54187 0.0113,0.80151 1.00472,0.21449 1.36596,0.21449 0.65476,0 1.03858,-0.51929 0.38382,-0.53058 0.38382,-1.28693 0,-1.1176 -0.33866,-1.82881 -0.32738,-0.7112 -0.91441,-0.7112 z m 3.52215,-1.73849 q 0,-1.1176 -0.3048,-1.50142 0.14675,-0.21449 0.508,-0.21449 0.0677,0 0.14675,0.0113 0.28223,0.28222 0.28223,1.63689 0,0.73378 -0.0677,1.70462 -0.13546,1.69334 -0.13546,2.48356 0,2.1336 0.82409,2.1336 0,0 0.41768,-0.079 0.1016,0 0.16934,0.0903 -0.0339,0.4064 -0.66605,0.4064 -0.62089,0 -0.95955,-0.37253 -0.33867,-0.38382 -0.42898,-0.94827 -0.079,-0.57573 -0.079,-0.94827 0,-0.37253 0.0113,-0.8128 0.0113,-0.45155 0.1016,-1.28693 0.18063,-1.69334 0.18063,-2.30294 z m 5.88153,3.49956 -0.0565,1.29823 q 0,0.98213 0.22578,1.3208 0.13547,0.22578 0.37253,0.22578 0.0677,0 0.19191,-0.0339 0.23707,-0.0677 0.39512,0.0677 -0.079,0.39511 -0.79023,0.39511 -0.48542,0 -0.64346,-0.4064 -0.12418,-0.3048 -0.18063,-0.75635 -0.0564,-0.46285 -0.0903,-0.63218 -0.73378,1.39982 -1.4224,1.70462 -0.34996,0.15805 -0.8128,0.15805 -0.46285,0 -0.72249,-0.44027 -0.24836,-0.45156 -0.24836,-1.30951 0,-0.85796 0.28223,-1.79494 0.28222,-0.94827 0.82409,-1.59173 0.54186,-0.65476 1.18533,-0.65476 0.92569,0 1.23049,0.76765 0.25965,0.65475 0.25965,1.68204 z m -2.76578,-0.36124 q -0.15805,0.6096 -0.23707,1.16275 -0.079,0.54187 -0.079,0.97085 0,0.41769 0.16933,0.72249 0.18062,0.3048 0.46284,0.3048 0.6096,0 1.17405,-1.15147 0.56444,-1.15147 0.56444,-2.14489 0,-0.64347 -0.33866,-1.06116 -0.22578,-0.27093 -0.59831,-0.27093 -0.36125,0 -0.66605,0.42898 -0.29351,0.41769 -0.45155,1.03858 z m 8.06026,-0.62089 q -0.21449,0.21449 -0.42898,0.21449 -0.21449,0 -0.34995,-0.18063 -0.12418,-0.19191 -0.2032,-0.4064 -0.079,-0.22577 -0.29351,-0.4064 -0.2032,-0.19191 -0.51929,-0.19191 -0.44027,0.0452 -0.80152,0.63218 -0.36124,0.57574 -0.53057,1.27565 -0.16934,0.69991 -0.16934,1.3208 0,0.6096 0.33867,1.06115 0.34996,0.44027 0.93698,0.44027 0.67733,0 1.08373,-0.47413 0.16934,-0.2032 0.31609,-0.4064 0.36125,-0.47414 0.65476,-0.47414 0.1016,0 0.29351,0.0564 0,0.41769 -0.76765,1.10631 -0.75635,0.67733 -1.64817,0.67733 -0.89183,0 -1.41112,-0.56444 -0.508,-0.57573 -0.508,-1.47885 0,-1.16275 0.56445,-2.32551 0.28222,-0.56444 0.76764,-0.92569 0.48543,-0.37253 1.08374,-0.37253 0.59831,0 0.95955,0.4064 0.37254,0.39511 0.63218,1.016 z m 1.81751,1.94169 q -0.0226,0.22578 -0.0226,0.3048 0,0.67733 0.4064,1.04987 0.41769,0.37253 0.98213,0.37253 0.56445,0 0.9144,-0.15804 0.36125,-0.15805 0.51929,-0.33867 0.4064,-0.508 0.74507,-0.508 0.12418,0 0.29351,0.0677 -0.11289,0.55316 -0.85796,1.016 -0.73377,0.45156 -1.85137,0.45156 -0.79023,0 -1.36596,-0.49671 -0.56445,-0.508 -0.56445,-1.37725 0,-0.86924 0.33867,-1.68204 0.34996,-0.82409 0.99342,-1.39983 0.65476,-0.58702 1.3208,-0.58702 0.67734,0 1.08374,0.28222 0.41769,0.27094 0.41769,0.80151 0,0.98214 -0.88054,1.62561 -0.86924,0.63217 -1.85138,0.63217 -0.25964,0 -0.62088,-0.0564 z m 0.85795,-0.37253 q 0.53058,0 0.94827,-0.33867 0.41769,-0.33867 0.58702,-0.7112 0.18062,-0.37254 0.18062,-0.67734 0,-0.3048 -0.23706,-0.53057 -0.23707,-0.23707 -0.55316,-0.23707 -0.56444,0 -1.04987,0.77893 -0.47413,0.77894 -0.67733,1.61432 0.49671,0.1016 0.80151,0.1016 z"
         id="path26" /></g><g
       id="text17"
       style="font-size:11.2889px;line-height:1.1;font-family:Handlee;-inkscape-font-specification:Handlee;stroke:#b9b9b9;stroke-width:0.2;stroke-opacity:0"
       aria-label="Unrelated&#10;comment&#10;breaks&#10;the flow"><path
         d="m 161.74655,325.48474 q 0.36125,-0.23706 0.63218,-0.13546 0.13547,0.0451 0.1016,0.24835 -0.33867,2.2352 -0.33867,3.08187 0,0.83538 0.0903,1.45627 0.1016,0.6096 0.32737,1.28693 0.23707,0.66605 0.73378,1.08374 0.49671,0.4064 1.20791,0.4064 0.99343,0 1.7385,-1.20791 0.75635,-1.2192 0.75635,-2.92383 0,-1.71591 -0.80151,-3.3528 0.23707,-0.2032 0.41769,-0.2032 0.19191,0 0.29351,0.0339 0.90311,1.29823 0.90311,3.37539 0,1.70462 -0.88053,3.26249 -0.42898,0.73378 -1.12889,1.20791 -0.69991,0.46284 -1.46756,0.46284 -0.75635,0 -1.28693,-0.31608 -0.51929,-0.32738 -0.82409,-0.81281 -0.29351,-0.49671 -0.48543,-1.15146 -0.32737,-1.12889 -0.32737,-2.47227 0,-1.98685 0.33866,-3.33023 z m 11.86464,7.49583 q -0.2032,0.21449 -0.46284,0.21449 -0.48543,0 -0.72249,-0.51929 -0.23707,-0.51929 -0.28223,-1.26435 -0.0339,-0.74507 -0.0452,-1.49014 -0.0113,-0.74507 -0.12418,-1.26436 -0.1016,-0.51929 -0.39511,-0.51929 -0.39511,0 -0.67734,0.7112 -0.27093,0.71121 -0.38382,1.58045 -0.31609,2.42711 -0.6096,2.72063 -0.2032,0.1016 -0.34995,0.1016 -0.14676,0 -0.24836,-0.0339 -0.23707,-1.03858 -0.3048,-3.57858 -0.0226,-1.26436 -0.0452,-1.63689 0.23707,-0.15805 0.4064,-0.15805 0.16934,0 0.27094,0.0339 0.0564,0.48542 0.0564,1.98685 0.0113,1.50142 0.0226,1.7272 0.0564,-0.23707 0.13547,-0.76765 0.0903,-0.53058 0.15804,-0.86924 0.0677,-0.34996 0.21449,-0.8128 0.14676,-0.46285 0.32738,-0.73378 0.18062,-0.28222 0.49671,-0.47414 0.31609,-0.2032 0.7112,-0.2032 0.53058,0 0.76765,0.48543 0.24835,0.47413 0.27093,1.18533 0.0226,0.7112 0.0226,1.44498 0.0113,0.73378 0.18062,1.34338 0.18062,0.6096 0.6096,0.79022 z m 1.84009,-0.79022 0.0339,0.64347 q 0,0.24835 -0.14676,0.34995 -0.13547,0.0903 -0.28222,0.0903 -0.13547,0 -0.28222,-0.0452 -0.24836,-1.30951 -0.38383,-3.26249 -0.12417,-1.95298 -0.14675,-2.21263 0.16933,-0.15804 0.34995,-0.15804 0.19191,0 0.33867,0.0451 0.0452,0.32738 0.0677,1.44498 0.0226,1.1176 0.0565,1.39983 0.15804,-0.94827 0.56444,-1.77236 0.22578,-0.46285 0.58703,-0.73378 0.37253,-0.28222 0.79022,-0.28222 0.42898,0 0.77893,0.38382 0.36125,0.37253 0.36125,0.67733 0,0.11289 -0.13547,0.18063 -0.13547,0.0564 -0.3048,0.0564 -0.15804,0 -0.24835,-0.12418 -0.0903,-0.12418 -0.12418,-0.27093 -0.0339,-0.15805 -0.14676,-0.28222 -0.11289,-0.12418 -0.3048,-0.12418 -0.508,0 -0.86924,0.9144 -0.55316,1.36596 -0.55316,3.08187 z m 3.7705,-1.18534 q -0.0226,0.22578 -0.0226,0.3048 0,0.67734 0.4064,1.04987 0.41769,0.37254 0.98214,0.37254 0.56444,0 0.9144,-0.15805 0.36124,-0.15804 0.51929,-0.33867 0.4064,-0.508 0.74506,-0.508 0.12418,0 0.29351,0.0677 -0.11288,0.55315 -0.85795,1.016 -0.73378,0.45155 -1.85138,0.45155 -0.79022,0 -1.36596,-0.49671 -0.56444,-0.508 -0.56444,-1.37724 0,-0.86925 0.33866,-1.68205 0.34996,-0.82409 0.99343,-1.39982 0.65475,-0.58703 1.3208,-0.58703 0.67733,0 1.08373,0.28223 0.41769,0.27093 0.41769,0.80151 0,0.98213 -0.88053,1.6256 -0.86925,0.63218 -1.85138,0.63218 -0.25965,0 -0.62089,-0.0564 z m 0.85796,-0.37253 q 0.53057,0 0.94826,-0.33867 0.41769,-0.33866 0.58703,-0.7112 0.18062,-0.37253 0.18062,-0.67733 0,-0.3048 -0.23707,-0.53058 -0.23707,-0.23707 -0.55316,-0.23707 -0.56444,0 -1.04986,0.77894 -0.47414,0.77893 -0.67734,1.61431 0.49671,0.1016 0.80152,0.1016 z m 4.27848,-4.08658 q 0,-1.1176 -0.3048,-1.50142 0.14676,-0.21449 0.508,-0.21449 0.0677,0 0.14676,0.0113 0.28222,0.28223 0.28222,1.6369 0,0.73377 -0.0677,1.70462 -0.13547,1.69333 -0.13547,2.48356 0,2.1336 0.82409,2.1336 0,0 0.41769,-0.079 0.1016,0 0.16933,0.0903 -0.0339,0.4064 -0.66604,0.4064 -0.62089,0 -0.95956,-0.37253 -0.33866,-0.38383 -0.42898,-0.94827 -0.079,-0.57574 -0.079,-0.94827 0,-0.37253 0.0113,-0.8128 0.0113,-0.45156 0.1016,-1.28694 0.18062,-1.69333 0.18062,-2.30293 z m 5.88153,3.49956 -0.0564,1.29822 q 0,0.98214 0.22577,1.3208 0.13547,0.22578 0.37254,0.22578 0.0677,0 0.19191,-0.0339 0.23707,-0.0677 0.39511,0.0677 -0.079,0.39511 -0.79022,0.39511 -0.48543,0 -0.64347,-0.4064 -0.12418,-0.3048 -0.18062,-0.75636 -0.0565,-0.46284 -0.0903,-0.63218 -0.73378,1.39983 -1.42241,1.70463 -0.34995,0.15804 -0.8128,0.15804 -0.46284,0 -0.72249,-0.44026 -0.24835,-0.45156 -0.24835,-1.30952 0,-0.85795 0.28222,-1.79493 0.28222,-0.94827 0.82409,-1.59174 0.54187,-0.65475 1.18534,-0.65475 0.92569,0 1.23049,0.76764 0.25964,0.65476 0.25964,1.68205 z m -2.76578,-0.36125 q -0.15805,0.6096 -0.23707,1.16276 -0.079,0.54187 -0.079,0.97085 0,0.41768 0.16933,0.72249 0.18063,0.3048 0.46285,0.3048 0.6096,0 1.17404,-1.15147 0.56445,-1.15147 0.56445,-2.14489 0,-0.64347 -0.33867,-1.06116 -0.22578,-0.27093 -0.59831,-0.27093 -0.36124,0 -0.66604,0.42897 -0.29352,0.41769 -0.45156,1.03858 z m 4.27848,-1.1176 q -0.508,0 -0.68862,-0.24835 0,-0.18063 0.14676,-0.28223 0.15804,-0.1016 0.33866,-0.12417 0.18063,-0.0339 0.58703,-0.0564 0.0339,-0.3048 0.0339,-0.77893 0.0113,-0.48543 0.0226,-0.82409 0.0339,-0.89183 0.27094,-1.09503 0.1016,-0.0903 0.21448,-0.0903 0.12418,0 0.21449,0.0226 0.0339,0.8128 0.0339,0.98214 l -0.0677,1.69333 q 0.0226,0.0113 0.12418,0.0113 l 0.8128,-0.0339 q 0.88053,0 0.88053,0.27094 0,0.38382 -0.31609,0.45155 -0.14675,0.0339 -0.34995,0.0339 -0.19192,0 -0.50801,-0.0452 -0.3048,-0.0564 -0.44026,-0.0564 -0.13547,0 -0.18063,0.0113 -0.0339,0.32738 -0.0339,0.65475 0,0.31609 0.0113,0.80152 0.0226,0.47413 0.0903,1.14017 0.079,0.66605 0.32738,1.15147 0.24835,0.47414 0.63217,0.47414 0.19192,0 0.45156,-0.14676 0.25965,-0.15804 0.39511,-0.15804 0.14676,0 0.24836,0.0677 0.11289,0.0564 0.11289,0.13547 0,0.23706 -0.48543,0.46284 -0.47413,0.21449 -0.8128,0.21449 -1.24178,0 -1.54658,-2.34809 -0.0903,-0.67734 -0.13546,-2.32551 -0.18062,0.0339 -0.38383,0.0339 z m 4.60588,2.4384 q -0.0226,0.22578 -0.0226,0.3048 0,0.67734 0.4064,1.04987 0.41769,0.37254 0.98213,0.37254 0.56445,0 0.9144,-0.15805 0.36125,-0.15804 0.51929,-0.33867 0.4064,-0.508 0.74507,-0.508 0.12418,0 0.29351,0.0677 -0.11289,0.55315 -0.85795,1.016 -0.73378,0.45155 -1.85138,0.45155 -0.79023,0 -1.36596,-0.49671 -0.56445,-0.508 -0.56445,-1.37724 0,-0.86925 0.33867,-1.68205 0.34996,-0.82409 0.99342,-1.39982 0.65476,-0.58703 1.32081,-0.58703 0.67733,0 1.08373,0.28223 0.41769,0.27093 0.41769,0.80151 0,0.98213 -0.88054,1.6256 -0.86924,0.63218 -1.85137,0.63218 -0.25965,0 -0.62089,-0.0564 z m 0.85795,-0.37253 q 0.53058,0 0.94827,-0.33867 0.41769,-0.33866 0.58702,-0.7112 0.18062,-0.37253 0.18062,-0.67733 0,-0.3048 -0.23706,-0.53058 -0.23707,-0.23707 -0.55316,-0.23707 -0.56444,0 -1.04987,0.77894 -0.47413,0.77893 -0.67733,1.61431 0.49671,0.1016 0.80151,0.1016 z m 8.15058,-6.37823 q -0.42897,3.88338 -0.42897,5.54285 0,1.64818 0.3048,3.29636 -0.22578,0.22578 -0.39512,0.22578 -0.16933,0 -0.28222,-0.0452 -0.23707,-0.83538 -0.28222,-1.81751 -0.27093,0.42898 -0.4064,0.6096 -0.12418,0.18062 -0.44027,0.53058 -0.57573,0.67733 -1.36596,0.67733 -0.59831,0 -0.86924,-0.55315 -0.25965,-0.56445 -0.25965,-1.43369 0,-0.88054 0.19192,-1.67076 0.2032,-0.80151 0.68862,-1.37725 0.48542,-0.58702 1.19662,-0.58702 0.42898,0 0.79023,0.18062 0.36124,0.18063 0.49671,0.48543 0.0226,-0.3048 0.0452,-0.93698 0.0226,-0.63218 0.0452,-1.1176 0.0339,-0.49672 0.1016,-1.00472 0.12418,-1.08373 0.55315,-1.08373 0.14676,0 0.31609,0.079 z m -1.3208,4.47041 q -0.13546,-0.24836 -0.37253,-0.36125 -0.23707,-0.12418 -0.63218,-0.12418 -0.38382,0 -0.72249,0.44027 -0.66604,0.86925 -0.66604,2.51743 0,0.53057 0.16933,1.06115 0.16933,0.51929 0.49671,0.51929 0.47413,0 0.92569,-0.62089 0.45156,-0.62089 0.69991,-1.4224 0.24836,-0.8128 0.24836,-1.45627 0,-0.3048 -0.14676,-0.55315 z"
         id="path27" /><path
         d="m 165.08807,341.48111 q -0.21449,0.21449 -0.42898,0.21449 -0.21449,0 -0.34996,-0.18062 -0.12417,-0.19191 -0.2032,-0.4064 -0.079,-0.22578 -0.29351,-0.4064 -0.2032,-0.19191 -0.51929,-0.19191 -0.44026,0.0452 -0.80151,0.63218 -0.36124,0.57573 -0.53058,1.27564 -0.16933,0.69991 -0.16933,1.3208 0,0.60961 0.33867,1.06116 0.34995,0.44027 0.93697,0.44027 0.67734,0 1.08374,-0.47414 0.16933,-0.2032 0.31609,-0.4064 0.36124,-0.47413 0.65475,-0.47413 0.1016,0 0.29352,0.0564 0,0.41769 -0.76765,1.10632 -0.75636,0.67733 -1.64818,0.67733 -0.89182,0 -1.41111,-0.56444 -0.508,-0.57574 -0.508,-1.47885 0,-1.16276 0.56444,-2.32551 0.28223,-0.56445 0.76765,-0.92569 0.48542,-0.37254 1.08373,-0.37254 0.59831,0 0.95956,0.4064 0.37253,0.39511 0.63218,1.016 z m 1.62559,-0.45155 q 0.57573,-0.88054 1.65947,-0.88054 1.08373,0 1.7272,0.88054 0.65476,0.88053 0.65476,2.00942 0,1.1176 -0.7112,1.89654 -0.71121,0.77893 -1.80623,0.77893 -1.09502,0 -1.59173,-0.6096 -0.49672,-0.62089 -0.49672,-1.73849 0,-1.45627 0.56445,-2.3368 z m 0.49671,0.59831 q -0.14675,0.44027 -0.22578,0.88053 -0.0677,0.44027 -0.0677,0.82409 0,0.37254 0.0564,0.68863 0.0565,0.3048 0.19192,0.6096 0.13546,0.29351 0.4064,0.47413 0.27093,0.16933 0.64346,0.16933 0.75636,0 1.26436,-0.62088 0.51929,-0.62089 0.51929,-1.50143 0,-0.88053 -0.47413,-1.70462 -0.46285,-0.83538 -1.14018,-0.83538 -0.4064,0 -0.7112,0.28222 -0.3048,0.28222 -0.46285,0.73378 z m 5.1816,-0.84667 q 0.12418,0 0.12418,1.49014 0,0.23706 -0.0113,0.75635 0,0.51929 0,0.54187 0.11289,-1.27564 0.22578,-1.73849 0.12418,-0.46284 0.24836,-0.79022 0.12417,-0.33867 0.27093,-0.51929 0.36125,-0.46285 0.83538,-0.46285 0.59831,0 0.89182,0.59831 0.3048,0.59832 0.31609,1.59174 0.28222,-2.04329 1.49014,-2.04329 0.51929,0 0.73377,0.53058 0.21449,0.53058 0.21449,1.26435 l -0.0339,1.71592 q 0,1.69333 0.73378,1.69333 l 0.64346,-0.1016 q 0.0565,0 0.11289,0.0113 -0.11289,0.16933 -0.41769,0.27093 -0.3048,0.0903 -0.59831,0.0903 -0.57573,0 -0.86924,-0.50801 -0.28223,-0.51928 -0.3048,-1.08373 -0.0226,-0.57573 -0.0226,-0.98213 l 0.0226,-1.00472 q 0,-0.49671 -0.0677,-0.94826 -0.0564,-0.45156 -0.31609,-0.45156 -0.38382,0 -0.74506,1.61431 -0.34996,1.60303 -0.42898,3.04801 -0.19191,0.2032 -0.48543,0.21449 -0.0903,0 -0.16933,-0.0339 -0.1016,-0.58702 -0.11289,-1.95298 0,-1.37725 -0.13546,-2.19005 -0.13547,-0.8128 -0.60961,-0.8128 -0.31608,0 -0.51928,0.69991 -0.32738,1.09503 -0.58703,3.40925 -0.0677,0.54187 -0.1016,0.77894 -0.23706,0.2032 -0.48542,0.2032 l -0.16933,-0.0226 q -0.15805,-1.88525 -0.15805,-4.67361 0.12418,-0.2032 0.48542,-0.2032 z m 7.54098,0 q 0.12418,0 0.12418,1.49014 0,0.23706 -0.0113,0.75635 0,0.51929 0,0.54187 0.11289,-1.27564 0.22578,-1.73849 0.12418,-0.46284 0.24835,-0.79022 0.12418,-0.33867 0.27094,-0.51929 0.36124,-0.46285 0.83538,-0.46285 0.59831,0 0.89182,0.59831 0.3048,0.59832 0.31609,1.59174 0.28222,-2.04329 1.49013,-2.04329 0.51929,0 0.73378,0.53058 0.21449,0.53058 0.21449,1.26435 l -0.0339,1.71592 q 0,1.69333 0.73378,1.69333 l 0.64347,-0.1016 q 0.0564,0 0.11289,0.0113 -0.11289,0.16933 -0.41769,0.27093 -0.3048,0.0903 -0.59831,0.0903 -0.57574,0 -0.86925,-0.50801 -0.28222,-0.51928 -0.3048,-1.08373 -0.0226,-0.57573 -0.0226,-0.98213 l 0.0226,-1.00472 q 0,-0.49671 -0.0677,-0.94826 -0.0564,-0.45156 -0.31609,-0.45156 -0.38382,0 -0.74507,1.61431 -0.34995,1.60303 -0.42898,3.04801 -0.19191,0.2032 -0.48542,0.21449 -0.0903,0 -0.16933,-0.0339 -0.1016,-0.58702 -0.11289,-1.95298 0,-1.37725 -0.13547,-2.19005 -0.13546,-0.8128 -0.6096,-0.8128 -0.31609,0 -0.51929,0.69991 -0.32738,1.09503 -0.58702,3.40925 -0.0677,0.54187 -0.1016,0.77894 -0.23707,0.2032 -0.48542,0.2032 l -0.16934,-0.0226 q -0.15804,-1.88525 -0.15804,-4.67361 0.12418,-0.2032 0.48542,-0.2032 z m 7.58613,2.64161 q -0.0226,0.22577 -0.0226,0.3048 0,0.67733 0.4064,1.04986 0.41769,0.37254 0.98213,0.37254 0.56445,0 0.9144,-0.15805 0.36125,-0.15804 0.51929,-0.33866 0.4064,-0.50801 0.74507,-0.50801 0.12418,0 0.29351,0.0677 -0.11289,0.55315 -0.85796,1.016 -0.73377,0.45156 -1.85138,0.45156 -0.79022,0 -1.36595,-0.49672 -0.56445,-0.508 -0.56445,-1.37724 0,-0.86925 0.33867,-1.68205 0.34996,-0.82409 0.99342,-1.39982 0.65476,-0.58702 1.3208,-0.58702 0.67734,0 1.08374,0.28222 0.41769,0.27093 0.41769,0.80151 0,0.98213 -0.88054,1.6256 -0.86924,0.63218 -1.85138,0.63218 -0.25964,0 -0.62089,-0.0564 z m 0.85796,-0.37254 q 0.53058,0 0.94827,-0.33867 0.41769,-0.33866 0.58702,-0.7112 0.18062,-0.37253 0.18062,-0.67733 0,-0.3048 -0.23706,-0.53058 -0.23707,-0.23707 -0.55316,-0.23707 -0.56444,0 -1.04987,0.77894 -0.47413,0.77893 -0.67733,1.61431 0.49671,0.1016 0.80151,0.1016 z m 8.54569,2.34809 q -0.2032,0.21449 -0.46284,0.21449 -0.48543,0 -0.72249,-0.51929 -0.23707,-0.51929 -0.28222,-1.26435 -0.0339,-0.74507 -0.0452,-1.49014 -0.0113,-0.74507 -0.12418,-1.26436 -0.1016,-0.51929 -0.39511,-0.51929 -0.39511,0 -0.67733,0.71121 -0.27094,0.7112 -0.38383,1.58044 -0.31609,2.42711 -0.6096,2.72063 -0.2032,0.1016 -0.34995,0.1016 -0.14676,0 -0.24836,-0.0339 -0.23707,-1.03858 -0.3048,-3.57858 -0.0226,-1.26436 -0.0451,-1.63689 0.23706,-0.15805 0.4064,-0.15805 0.16933,0 0.27093,0.0339 0.0564,0.48542 0.0564,1.98685 0.0113,1.50142 0.0226,1.7272 0.0564,-0.23707 0.13547,-0.76765 0.0903,-0.53058 0.15804,-0.86924 0.0677,-0.34996 0.21449,-0.8128 0.14676,-0.46285 0.32738,-0.73378 0.18062,-0.28222 0.49671,-0.47414 0.31609,-0.2032 0.7112,-0.2032 0.53058,0 0.76765,0.48543 0.24835,0.47413 0.27093,1.18533 0.0226,0.7112 0.0226,1.44498 0.0113,0.73378 0.18062,1.34338 0.18062,0.6096 0.6096,0.79022 z m 0.74507,-4.41396 q -0.508,0 -0.68863,-0.24835 0,-0.18063 0.14676,-0.28223 0.15804,-0.1016 0.33867,-0.12417 0.18062,-0.0339 0.58702,-0.0565 0.0339,-0.3048 0.0339,-0.77893 0.0113,-0.48542 0.0226,-0.82409 0.0339,-0.89182 0.27094,-1.09503 0.1016,-0.0903 0.21449,-0.0903 0.12418,0 0.21449,0.0226 0.0339,0.8128 0.0339,0.98214 l -0.0677,1.69333 q 0.0226,0.0113 0.12418,0.0113 l 0.8128,-0.0339 q 0.88053,0 0.88053,0.27094 0,0.38382 -0.31609,0.45155 -0.14675,0.0339 -0.34995,0.0339 -0.19191,0 -0.508,-0.0452 -0.3048,-0.0564 -0.44027,-0.0564 -0.13547,0 -0.18062,0.0113 -0.0339,0.32738 -0.0339,0.65475 0,0.31609 0.0113,0.80152 0.0226,0.47413 0.0903,1.14018 0.079,0.66604 0.32738,1.15146 0.24835,0.47414 0.63218,0.47414 0.19191,0 0.45155,-0.14676 0.25965,-0.15804 0.39511,-0.15804 0.14676,0 0.24836,0.0677 0.11289,0.0564 0.11289,0.13547 0,0.23706 -0.48542,0.46284 -0.47414,0.21449 -0.8128,0.21449 -1.24178,0 -1.54658,-2.34809 -0.0903,-0.67733 -0.13547,-2.32551 -0.18062,0.0339 -0.38382,0.0339 z"
         id="path28" /><path
         d="m 161.43046,350.01552 q 0.13547,-0.24835 0.49672,-0.24835 0.079,0 0.15804,0.0226 0.0226,0.59831 0.0226,3.34151 0.0113,-0.0113 0.1016,-0.1016 0.1016,-0.0903 0.12418,-0.11289 0.0226,-0.0226 0.11288,-0.1016 0.0903,-0.0903 0.13547,-0.11289 0.0565,-0.0339 0.14676,-0.0903 0.0903,-0.0677 0.15804,-0.0903 0.0677,-0.0339 0.15805,-0.0677 0.16933,-0.0565 0.39511,-0.0565 0.83538,0 1.34338,0.69991 0.508,0.68863 0.508,1.54658 0,0.85796 -0.25965,1.63689 -0.25964,0.76765 -0.80151,1.34338 -0.54187,0.57574 -1.26436,0.57574 -0.7112,0 -1.19662,-0.53058 -0.47413,-0.53058 -0.47413,-1.20791 0,-0.68863 0.079,-2.52872 0.079,-1.85138 0.079,-2.65289 0,-0.8128 -0.0226,-1.26436 z m 1.61432,7.6313 q 0.44026,0 0.79022,-0.41769 0.7112,-0.82409 0.7112,-2.3368 0,-0.8128 -0.31609,-1.43369 -0.31609,-0.63218 -0.89182,-0.63218 -0.32738,0 -0.57574,0.32738 -0.24835,0.31609 -0.38382,0.84667 -0.25964,1.00471 -0.25964,2.2352 0,1.03858 0.42898,1.27564 0.19191,0.11289 0.49671,0.13547 z m 4.45911,-0.62089 0.0339,0.64347 q 0,0.24835 -0.14676,0.34995 -0.13547,0.0903 -0.28222,0.0903 -0.13547,0 -0.28223,-0.0452 -0.24835,-1.30951 -0.38382,-3.26249 -0.12418,-1.95298 -0.14675,-2.21263 0.16933,-0.15804 0.34995,-0.15804 0.19191,0 0.33867,0.0451 0.0452,0.32738 0.0677,1.44498 0.0226,1.1176 0.0564,1.39983 0.15804,-0.94827 0.56444,-1.77236 0.22578,-0.46285 0.58702,-0.73378 0.37254,-0.28222 0.79023,-0.28222 0.42898,0 0.77893,0.38382 0.36125,0.37253 0.36125,0.67733 0,0.11289 -0.13547,0.18063 -0.13547,0.0564 -0.3048,0.0564 -0.15804,0 -0.24836,-0.12418 -0.0903,-0.12417 -0.12417,-0.27093 -0.0339,-0.15804 -0.14676,-0.28222 -0.11289,-0.12418 -0.3048,-0.12418 -0.508,0 -0.86925,0.9144 -0.55315,1.36596 -0.55315,3.08187 z m 3.7705,-1.18533 q -0.0226,0.22577 -0.0226,0.3048 0,0.67733 0.4064,1.04986 0.41769,0.37254 0.98213,0.37254 0.56445,0 0.9144,-0.15805 0.36125,-0.15804 0.51929,-0.33866 0.4064,-0.508 0.74507,-0.508 0.12418,0 0.29351,0.0677 -0.11289,0.55316 -0.85795,1.016 -0.73378,0.45156 -1.85138,0.45156 -0.79023,0 -1.36596,-0.49672 -0.56444,-0.508 -0.56444,-1.37724 0,-0.86925 0.33866,-1.68205 0.34996,-0.82409 0.99343,-1.39982 0.65475,-0.58702 1.3208,-0.58702 0.67733,0 1.08373,0.28222 0.41769,0.27093 0.41769,0.80151 0,0.98213 -0.88053,1.6256 -0.86925,0.63218 -1.85138,0.63218 -0.25965,0 -0.62089,-0.0564 z m 0.85795,-0.37254 q 0.53058,0 0.94827,-0.33866 0.41769,-0.33867 0.58702,-0.71121 0.18063,-0.37253 0.18063,-0.67733 0,-0.3048 -0.23707,-0.53058 -0.23707,-0.23706 -0.55316,-0.23706 -0.56444,0 -1.04986,0.77893 -0.47414,0.77893 -0.67734,1.61431 0.49671,0.1016 0.80151,0.1016 z m 7.47325,-0.58702 -0.0564,1.29822 q 0,0.98214 0.22577,1.3208 0.13547,0.22578 0.37254,0.22578 0.0677,0 0.19191,-0.0339 0.23707,-0.0677 0.39511,0.0677 -0.079,0.39511 -0.79022,0.39511 -0.48542,0 -0.64347,-0.4064 -0.12418,-0.3048 -0.18062,-0.75636 -0.0565,-0.46284 -0.0903,-0.63217 -0.73378,1.39982 -1.4224,1.70462 -0.34996,0.15804 -0.81281,0.15804 -0.46284,0 -0.72248,-0.44026 -0.24836,-0.45156 -0.24836,-1.30952 0,-0.85795 0.28222,-1.79493 0.28222,-0.94827 0.82409,-1.59174 0.54187,-0.65475 1.18534,-0.65475 0.92569,0 1.23049,0.76764 0.25964,0.65476 0.25964,1.68205 z m -2.76578,-0.36125 q -0.15804,0.60961 -0.23707,1.16276 -0.079,0.54187 -0.079,0.97085 0,0.41769 0.16933,0.72249 0.18063,0.3048 0.46285,0.3048 0.6096,0 1.17405,-1.15147 0.56444,-1.15147 0.56444,-2.14489 0,-0.64347 -0.33867,-1.06116 -0.22577,-0.27093 -0.59831,-0.27093 -0.36124,0 -0.66604,0.42898 -0.29351,0.41769 -0.45156,1.03857 z m 5.1816,-4.76391 q 0.0113,0.79022 0.0113,1.18533 0,0.38383 -0.0113,0.76765 0,0.38382 -0.0339,1.49013 -0.0339,1.09503 -0.0452,1.73849 0.42897,-0.29351 1.02729,-0.90311 0.59831,-0.62089 1.08373,-1.06115 0.76765,-0.68863 1.09502,-0.41769 0.12418,0.1016 0.079,0.19191 -0.11289,0.23706 -0.51929,0.57573 -0.39512,0.33867 -0.93698,0.76765 -0.54187,0.42897 -0.85796,0.79022 0.82409,0.11289 1.3208,0.92569 0.21449,0.37253 0.41769,0.74507 0.51929,0.98213 1.12889,1.33209 -0.22578,0.22577 -0.51929,0.22577 -0.29351,0 -0.58702,-0.28222 -0.28222,-0.28222 -0.49671,-0.68862 -0.2032,-0.4064 -0.41769,-0.8128 -0.48542,-0.98214 -1.12889,-0.98214 -0.3048,0 -0.51929,0.2032 -0.21449,0.19192 -0.21449,0.4064 0,1.35467 -0.0452,2.00943 -0.15804,0.21449 -0.33866,0.21449 -0.0564,0 -0.12418,-0.0226 -0.24836,-0.1016 -0.24836,-0.41769 0.0113,-0.31609 0.0677,-1.91911 0.12417,-4.09787 0.12417,-5.23805 0,-0.53058 0.10161,-0.7112 0.11288,-0.18062 0.25964,-0.18062 0.15804,0 0.32738,0.0677 z m 7.17973,3.8608 q -0.1016,-0.25964 -0.38382,-0.4064 -0.28222,-0.14675 -0.69991,-0.14675 -0.41769,0 -0.79022,0.24835 -0.36125,0.24836 -0.36125,0.66605 0,0.41769 0.33867,0.66604 0.34996,0.23707 0.83538,0.36125 0.49671,0.12418 0.99342,0.27093 0.49671,0.13547 0.83538,0.46285 0.34996,0.31609 0.34996,0.83537 0,0.75636 -0.63218,1.15147 -0.62089,0.39511 -1.50143,0.39511 -0.51929,0 -1.36595,-0.28222 -0.83538,-0.28222 -0.83538,-0.67733 0,-0.29351 0.49671,-0.29351 0.14676,0 0.38382,0.18062 0.72249,0.53058 1.47885,0.53058 0.4064,0 0.69991,-0.13547 0.54187,-0.25964 0.54187,-0.83538 0,-0.34995 -0.34996,-0.56444 -0.33867,-0.21449 -0.83538,-0.33867 -0.48542,-0.12418 -0.98213,-0.27093 -0.49671,-0.14676 -0.84667,-0.48543 -0.33867,-0.34995 -0.33867,-0.88053 0,-0.68862 0.62089,-1.1176 0.62089,-0.42898 1.53529,-0.42898 0.62089,0 1.11761,0.32738 0.508,0.31609 0.508,0.92569 0,0.4064 -0.46285,0.4064 -0.19191,0 -0.25964,-0.0677 -0.0565,-0.0677 -0.0677,-0.23706 0,-0.18063 -0.0226,-0.25965 z"
         id="path29" /><path
         d="m 161.30629,365.81998 q -0.508,0 -0.68863,-0.24835 0,-0.18062 0.14676,-0.28222 0.15804,-0.1016 0.33867,-0.12418 0.18062,-0.0339 0.58702,-0.0564 0.0339,-0.3048 0.0339,-0.77893 0.0113,-0.48542 0.0226,-0.82409 0.0339,-0.89182 0.27094,-1.09502 0.1016,-0.0903 0.21449,-0.0903 0.12417,0 0.21448,0.0226 0.0339,0.8128 0.0339,0.98214 l -0.0677,1.69333 q 0.0226,0.0113 0.12418,0.0113 l 0.8128,-0.0339 q 0.88053,0 0.88053,0.27094 0,0.38382 -0.31609,0.45155 -0.14675,0.0339 -0.34995,0.0339 -0.19192,0 -0.508,-0.0451 -0.3048,-0.0565 -0.44027,-0.0565 -0.13547,0 -0.18062,0.0113 -0.0339,0.32738 -0.0339,0.65476 0,0.31608 0.0113,0.80151 0.0226,0.47413 0.0903,1.14018 0.079,0.66604 0.32738,1.15146 0.24835,0.47414 0.63218,0.47414 0.19191,0 0.45155,-0.14676 0.25965,-0.15804 0.39511,-0.15804 0.14676,0 0.24836,0.0677 0.11289,0.0564 0.11289,0.13547 0,0.23707 -0.48542,0.46284 -0.47414,0.21449 -0.81281,0.21449 -1.24177,0 -1.54657,-2.34809 -0.0903,-0.67733 -0.13547,-2.32551 -0.18062,0.0339 -0.38382,0.0339 z m 4.09786,2.39325 0.1016,-5.05743 q 0,-0.58702 -0.0677,-0.80151 0.2032,-0.18062 0.62089,-0.18062 0.16933,1.20791 0.16933,3.10445 0,0.56444 -0.1016,2.61902 0.53058,-2.85609 1.89654,-2.85609 0.48542,0 0.74507,0.51929 0.27093,0.508 0.33866,1.24178 0.0677,0.73378 0.11289,1.46756 0.11289,1.76106 0.63218,1.76106 0.0113,0 0.21449,-0.0677 0.45156,-0.13547 0.508,-0.0677 0,0.12418 -0.34995,0.31609 -0.34996,0.18062 -0.64347,0.18062 -0.49671,0 -0.76765,-0.508 -0.25964,-0.51929 -0.32738,-1.25307 -0.0564,-0.73378 -0.0903,-1.45627 -0.0226,-0.73378 -0.14675,-1.24178 -0.12418,-0.51929 -0.41769,-0.51929 -0.36125,0 -0.66605,0.79023 -0.29351,0.77893 -0.46284,1.7272 -0.16934,0.94827 -0.41769,1.73849 -0.23707,0.77893 -0.48542,0.77893 -0.39512,0 -0.39512,-2.2352 z m 6.017,0.0452 q -0.0226,0.22577 -0.0226,0.3048 0,0.67733 0.4064,1.04986 0.41769,0.37254 0.98213,0.37254 0.56445,0 0.91441,-0.15805 0.36124,-0.15804 0.51929,-0.33866 0.4064,-0.508 0.74506,-0.508 0.12418,0 0.29351,0.0677 -0.11288,0.55316 -0.85795,1.016 -0.73378,0.45156 -1.85138,0.45156 -0.79022,0 -1.36596,-0.49671 -0.56444,-0.50801 -0.56444,-1.37725 0,-0.86925 0.33866,-1.68205 0.34996,-0.82409 0.99343,-1.39982 0.65475,-0.58702 1.3208,-0.58702 0.67733,0 1.08373,0.28222 0.41769,0.27093 0.41769,0.80151 0,0.98214 -0.88053,1.6256 -0.86925,0.63218 -1.85138,0.63218 -0.25965,0 -0.62089,-0.0564 z m 0.85795,-0.37254 q 0.53058,0 0.94827,-0.33866 0.41769,-0.33867 0.58702,-0.7112 0.18063,-0.37254 0.18063,-0.67734 0,-0.3048 -0.23707,-0.53058 -0.23707,-0.23706 -0.55316,-0.23706 -0.56444,0 -1.04986,0.77893 -0.47414,0.77893 -0.67734,1.61431 0.49671,0.1016 0.80151,0.1016 z m 7.30392,2.74321 q -0.2032,0 -0.2032,-3.42054 0,-1.44498 -0.0113,-1.74978 h -0.22578 q -0.15804,0 -0.24836,0 -0.0903,-0.0113 -0.23706,-0.0113 -0.13547,-0.0113 -0.22578,-0.0339 -0.079,-0.0226 -0.16933,-0.0564 -0.16934,-0.0677 -0.16934,-0.23707 0,-0.21449 0.69991,-0.21449 0.3048,0 0.55316,0.0226 0.0113,-0.22578 0.0113,-0.57573 0.0113,-0.36125 0.0226,-0.55316 0.0113,-0.2032 0.0226,-0.48542 0.0226,-0.28222 0.0564,-0.44027 0.0452,-0.15804 0.11289,-0.34995 0.0677,-0.2032 0.18062,-0.30481 0.11289,-0.1016 0.25965,-0.2032 0.25964,-0.19191 0.85795,-0.19191 0.6096,0 0.89183,0.3048 0.29351,0.29352 0.51928,1.00472 -0.16933,0.2032 -0.39511,0.2032 -0.079,0 -0.15804,-0.0226 -0.2032,-0.54187 -0.37254,-0.73378 -0.15804,-0.19191 -0.44026,-0.19191 -0.28222,0 -0.42898,0.1016 -0.13547,0.1016 -0.21449,0.25964 -0.16933,0.33867 -0.16933,1.63689 0,0.0565 0,0.2032 0,0.14676 0,0.27094 l 0.95955,-0.0903 q 0.56445,0 0.56445,0.25964 0,0.16933 -0.27094,0.22578 -0.27093,0.0564 -0.68862,0.0677 -0.4064,0.0113 -0.56444,0.0677 -0.0226,0.31609 -0.0226,0.83537 0,0.50801 0.0564,1.62561 0.0565,1.10631 0.0565,1.69333 0,0.58702 -0.12418,0.83538 -0.11289,0.24836 -0.48542,0.24836 z m 3.07057,-6.82979 q 0,-1.1176 -0.3048,-1.50142 0.14675,-0.21449 0.508,-0.21449 0.0677,0 0.14675,0.0113 0.28223,0.28222 0.28223,1.63689 0,0.73378 -0.0677,1.70462 -0.13546,1.69334 -0.13546,2.48356 0,2.1336 0.82409,2.1336 0,0 0.41769,-0.079 0.1016,0 0.16933,0.0903 -0.0339,0.4064 -0.66605,0.4064 -0.62089,0 -0.95955,-0.37253 -0.33867,-0.38383 -0.42898,-0.94827 -0.079,-0.57573 -0.079,-0.94827 0,-0.37253 0.0113,-0.8128 0.0113,-0.45155 0.1016,-1.28693 0.18062,-1.69334 0.18062,-2.30294 z m 2.69805,2.06587 q 0.57574,-0.88053 1.65947,-0.88053 1.08374,0 1.7272,0.88053 0.65476,0.88053 0.65476,2.00942 0,1.11761 -0.7112,1.89654 -0.7112,0.77893 -1.80622,0.77893 -1.09503,0 -1.59174,-0.6096 -0.49671,-0.62089 -0.49671,-1.73849 0,-1.45627 0.56444,-2.3368 z m 0.49672,0.59831 q -0.14676,0.44027 -0.22578,0.88054 -0.0677,0.44026 -0.0677,0.82409 0,0.37253 0.0564,0.68862 0.0564,0.3048 0.19191,0.6096 0.13547,0.29351 0.4064,0.47413 0.27093,0.16934 0.64347,0.16934 0.75635,0 1.26436,-0.62089 0.51928,-0.62089 0.51928,-1.50143 0,-0.88053 -0.47413,-1.70462 -0.46284,-0.83538 -1.14018,-0.83538 -0.4064,0 -0.7112,0.28222 -0.3048,0.28223 -0.46284,0.73378 z m 7.68774,2.77707 q -0.18063,0.51929 -0.69992,0.88054 -0.508,0.36124 -1.1176,0.36124 -0.59831,0 -0.93698,-0.59831 -0.32737,-0.6096 -0.32737,-1.68205 0,-3.02542 0.89182,-3.02542 0.11289,0 0.28222,0.0339 -0.0339,0.18063 -0.15804,0.68863 -0.24836,0.99342 -0.24836,1.74978 0,0.75635 0.21449,1.60302 0.21449,0.83538 0.6096,0.83538 0.2032,0 0.39511,-0.25965 0.19191,-0.25964 0.3048,-0.54186 0.11289,-0.29351 0.23707,-0.66605 0.12418,-0.37253 0.15804,-0.45155 -0.16933,-0.65476 -0.16933,-1.33209 0,-0.0339 0,-0.20321 0,-0.18062 0.0113,-0.34995 0.0113,-0.16933 0.0677,-0.4064 0.11289,-0.47414 0.6096,-0.47414 0.41769,0 0.41769,1.26436 0,0.22578 -0.0677,0.65476 -0.0565,0.42898 -0.0565,0.59831 0,0.51929 0.49672,1.34338 0.49671,0.82409 0.92569,0.82409 0.44026,0 0.64346,-0.49671 0.2032,-0.49671 0.2032,-1.10632 0,-0.69991 -0.12417,-1.06115 -0.11289,-0.37254 -0.14676,-0.48542 -0.0226,-0.11289 -0.14676,-0.34996 -0.11288,-0.24836 -0.14675,-0.31609 -0.0226,-0.0677 -0.16934,-0.32738 -0.14675,-0.25964 -0.16933,-0.29351 -0.32738,-0.57573 -0.38382,-0.63218 0.28222,-0.23706 0.51929,-0.23706 0.68862,0.49671 1.09502,1.6256 0.4064,1.1176 0.4064,2.04329 0,0.9144 -0.39511,1.44498 -0.38382,0.51929 -1.20791,0.51929 -0.57574,0 -1.09503,-0.31609 -0.508,-0.32738 -0.72248,-0.85796 z"
         id="path30" /></g></g></svg>
